<svg width="25" height="25" viewBox="0 0 25 25" fill="none" xmlns="http://www.w3.org/2000/svg">
<path d="M23.6001 12.3H1.1001" stroke="white" stroke-width="1.5" stroke-miterlimit="10" stroke-linecap="round" stroke-linejoin="round"/>
<path d="M12.3 23.6C18.5408 23.6 23.6 18.5408 23.6 12.3C23.6 6.05918 18.5408 1 12.3 1C6.05918 1 1 6.05918 1 12.3C1 18.5408 6.05918 23.6 12.3 23.6Z" stroke="white" stroke-width="1.5" stroke-miterlimit="10" stroke-linecap="round" stroke-linejoin="round"/>
<path d="M12.3001 23.6C15.4481 23.6 18.0001 18.5408 18.0001 12.3C18.0001 6.05918 15.4481 1 12.3001 1C9.15207 1 6.6001 6.05918 6.6001 12.3C6.6001 18.5408 9.15207 23.6 12.3001 23.6Z" stroke="white" stroke-width="1.5" stroke-miterlimit="10" stroke-linecap="round" stroke-linejoin="round"/>
<path d="M21.9 6.60001H2.69995" stroke="white" stroke-width="1.5" stroke-miterlimit="10" stroke-linecap="round" stroke-linejoin="round"/>
<path d="M21.9 18H2.69995" stroke="white" stroke-width="1.5" stroke-miterlimit="10" stroke-linecap="round" stroke-linejoin="round"/>
<path d="M12.3 23.6V1.10001" stroke="white" stroke-width="1.5" stroke-miterlimit="10" stroke-linecap="round" stroke-linejoin="round"/>
</svg>
