<svg width="80" height="80" viewBox="0 0 80 80" fill="none" xmlns="http://www.w3.org/2000/svg">
<g clip-path="url(#clip0_624_1165)">
<ellipse cx="40.4039" cy="39.5876" rx="39.5795" ry="38.7629" fill="white"/>
<path d="M76.4563 52.7363L76.1562 53.2368C76.1562 53.2368 53.2728 55.3054 36.1607 65.1478C36.1408 65.1594 36.0798 65.1909 35.9838 65.2399C35.6735 64.7885 35.3598 64.353 35.0432 63.9321C35.1028 63.8957 35.163 63.8589 35.2236 63.822C56.6089 52.7363 76.4563 52.7363 76.4563 52.7363Z" fill="#733D19"/>
<path d="M76.2037 53.689L75.9036 54.1894C75.9036 54.1894 58.9985 56.0025 42.4212 65.0646C41.0423 65.1049 39.7527 65.1597 38.5979 65.231C57.3531 55.022 76.2037 53.689 76.2037 53.689Z" fill="#733D19"/>
<path d="M75.8353 54.7417L75.6283 55.3003C75.6283 55.3003 61.2612 57.5038 49.2038 64.9637C49.1989 64.9667 49.1907 64.971 49.1795 64.9764C47.7202 64.9759 46.2769 64.9861 44.8884 65.0088C44.9083 64.9967 44.9287 64.9841 44.9485 64.972C61.5327 56.3351 75.8353 54.7417 75.8353 54.7417Z" fill="#733D19"/>
<path d="M74.9954 56.0884L74.7719 56.7813C74.7719 56.7813 64.0642 58.6914 54.9826 64.8887C54.9584 64.9022 54.8629 64.9512 54.7077 65.0278C53.4147 65.0045 52.0926 64.9885 50.7715 64.9813C50.7957 64.9667 50.82 64.9517 50.8442 64.9371C64.5257 57.1882 74.9954 56.0884 74.9954 56.0884Z" fill="#733D19"/>
<path d="M74.2548 57.5908L73.6876 58.8254C73.6876 58.8254 65.4151 60.6482 60.3614 65.1812C60.3604 65.1817 60.3595 65.1822 60.3585 65.1827C59.1367 65.1366 57.8307 65.0964 56.4761 65.0648C56.5032 65.0479 56.5309 65.0314 56.5585 65.0144C63.8143 59.6924 74.2548 57.5908 74.2548 57.5908Z" fill="#733D19"/>
<path d="M73.1958 59.7812L72.6286 61.0159C72.6286 61.0159 68.1969 62.1127 65.1299 65.4276C64.1632 65.3597 63.0331 65.2972 61.7861 65.2414C61.8007 65.2327 61.8152 65.224 61.8298 65.2152C67.617 60.7268 73.1958 59.7812 73.1958 59.7812Z" fill="#733D19"/>
<path d="M69.1012 65.8149L68.339 65.861C68.3279 65.8125 68.3196 65.7863 68.3133 65.7848C67.925 65.6903 67.2094 65.5991 66.2422 65.5142C66.9083 64.8984 69.2185 62.9102 71.9529 62.2255C75.2055 61.4109 69.1012 65.8149 69.1012 65.8149Z" fill="#733D19"/>
<path d="M68.1175 66.3155L67.7839 66.5991C67.7839 66.5991 51.7059 64.8389 36.8952 66.4658C36.888 66.4668 36.855 66.4687 36.7992 66.4721C36.6713 66.2704 36.5428 66.0715 36.4133 65.8756C36.4487 65.8722 36.4841 65.8684 36.52 65.865C51.5804 64.3637 68.1175 66.3155 68.1175 66.3155Z" fill="#733D19"/>
<path d="M67.9923 66.8903L67.6587 67.174C67.6587 67.174 53.1734 65.8992 37.8459 68.0178C37.8381 68.0187 37.8008 68.0207 37.7378 68.0236C37.5443 67.688 37.3489 67.3597 37.1521 67.0387C37.1831 67.0358 37.2142 67.0329 37.2457 67.0295C52.306 65.5272 67.9923 66.8903 67.9923 66.8903Z" fill="#733D19"/>
<path d="M66.9083 67.3912L66.5748 67.7748C66.5748 67.7748 54.2599 67.0217 38.7152 69.8086C38.5194 69.4308 38.3211 69.0618 38.1208 68.7005C53.4406 66.5034 66.9083 67.3912 66.9083 67.3912Z" fill="#733D19"/>
<path d="M66.1578 68.0669L65.8907 68.6657C65.8907 68.6657 55.4472 68.192 39.8807 71.7532C39.8696 71.7556 39.7998 71.7634 39.681 71.775C39.4715 71.3236 39.2592 70.8823 39.0435 70.4517C39.0721 70.4459 39.1011 70.4405 39.1302 70.4352C55.3333 67.4161 66.1578 68.0669 66.1578 68.0669Z" fill="#733D19"/>
<path d="M65.6217 69.0094L65.3323 69.635C65.3323 69.635 54.883 69.8188 40.9649 74.2393C40.9542 74.2427 40.883 74.2528 40.7627 74.2679C40.53 73.6932 40.2925 73.1336 40.051 72.5886C55.9884 68.8184 65.6217 69.0094 65.6217 69.0094Z" fill="#733D19"/>
<path d="M64.8567 70.169L62.6052 71.228C62.6052 71.228 54.2324 72.2958 41.8322 76.7251C41.824 76.728 41.7794 76.7386 41.7042 76.7551C41.5093 76.2052 41.311 75.6679 41.1079 75.1428C41.1103 75.1418 41.1128 75.1413 41.1152 75.1404C56.8843 69.8936 64.8567 70.169 64.8567 70.169Z" fill="#733D19"/>
<path d="M61.446 72.2705L59.8214 73.5715C59.8214 73.5715 54.692 75.0738 42.7922 79.3081C42.6191 78.7456 42.3505 78.1404 42.1682 77.6017C57.1243 72.2758 61.446 72.2705 61.446 72.2705Z" fill="#733D19"/>
<path d="M10.0427 70.071C10.0427 70.071 13.5475 75.2873 21.3841 77.7599C28.8895 80.1277 37.0286 78.6264 37.0286 78.6264C37.0286 78.6264 29.7292 73.8471 22.7352 71.8754C16.1218 70.0114 10.0427 70.071 10.0427 70.071Z" fill="#68BE00"/>
<path d="M27.0001 71.7742C26.5516 71.5259 22.0268 69.1949 8.69969 68.3424C5.57262 64.6639 2.82031 57.2825 2.82031 57.2825C2.82031 57.2825 10.6259 55.6808 15.6796 56.557C19.1199 65.1478 26.4469 71.3087 27.004 71.7684C27.0078 71.7708 27.004 71.7761 27.0001 71.7742Z" fill="#68BE00"/>
<path d="M39.1967 77.9265C39.1967 77.9265 31.0575 73.8668 25.2533 68.1059C19.4491 62.3451 17.4478 56.7734 17.4478 56.7734C17.4478 56.7734 24.6643 57.4179 31.2243 64.5389C37.0285 70.8399 39.1967 77.9265 39.1967 77.9265Z" fill="#68BE00"/>
<path d="M42.8685 79.4778L42.3856 78.1933C62.6994 77.0944 78.7449 60.2756 78.7449 39.9081C78.7449 18.7681 61.5499 1.56956 40.4143 1.56956C19.2787 1.56956 2.08418 18.7686 2.08418 39.9086C2.08418 44.5332 2.89819 49.0541 4.50438 53.3456L3.28168 53.8034C1.62021 49.3645 0.778564 44.6898 0.778564 39.9086C0.778564 34.557 1.82674 29.365 3.89351 24.477C4.88691 22.1276 6.1164 19.8621 7.54807 17.7425C8.96567 15.6433 10.5942 13.6697 12.3875 11.8755C14.1809 10.0818 16.1545 8.45296 18.2533 7.03506C20.3724 5.6031 22.6375 4.37335 24.9865 3.37975C29.8734 1.31255 35.0644 0.26416 40.4148 0.26416C45.7652 0.26416 50.9562 1.31255 55.8431 3.37975C58.1921 4.37335 60.4571 5.6031 62.5763 7.03506C64.675 8.45296 66.6483 10.0818 68.4421 11.8755C70.2359 13.6692 71.8639 15.6433 73.2815 17.7425C74.7132 19.8621 75.9427 22.1276 76.9361 24.477C79.0029 29.365 80.051 34.557 80.051 39.9086C80.051 45.0821 79.0693 50.1141 77.1334 54.8639C76.2021 57.1493 75.0477 59.3605 73.7028 61.4369C72.3715 63.4925 70.8395 65.4361 69.1499 67.2142C67.4623 68.99 65.6015 70.6179 63.6186 72.0523C61.6202 73.4978 59.4783 74.7615 57.252 75.808C52.6366 77.977 47.9828 79.2009 42.8685 79.4778Z" fill="#37A63D"/>
<path d="M51.7073 19.6119C51.5958 19.6759 48.9584 21.2106 47.7633 24.1735C47.6809 24.3786 47.4613 24.9227 46.6191 30.7999C46.1944 33.7622 45.81 36.6984 45.7373 37.2565C45.6931 37.5931 45.8958 37.9126 46.2192 38.0159C46.3588 38.0605 46.848 38.239 47.293 38.6623C47.8394 39.1821 48.1216 39.8809 48.1323 40.7392C48.142 41.5398 47.8763 42.2148 47.3415 42.7458C46.7384 43.3456 45.8085 43.7127 44.9024 43.7127C44.882 43.7127 44.8612 43.7127 44.8408 43.7122C44.6663 43.7088 44.4937 43.7118 44.3231 43.72C44.2314 43.5285 44.1369 43.3345 44.0404 43.1366C42.9345 40.8682 41.4748 37.8733 40.5667 30.7945C40.5657 30.7809 40.5647 30.7674 40.5633 30.7538C40.7 29.6652 40.8193 28.5174 40.9221 27.3065C41.4209 21.4327 41.4282 19.9639 40.747 17.7973C40.7131 17.6785 40.6777 17.5616 40.6394 17.4457C40.6292 17.4152 40.6166 17.3861 40.6031 17.3575C40.5788 17.2857 40.5536 17.213 40.5279 17.1388C40.4431 16.8944 40.2123 16.728 39.9534 16.7256C39.6945 16.7227 39.4603 16.8837 39.3706 17.1257C38.7423 18.8093 38.6114 20.8334 38.6924 23.0441C38.7283 24.1114 38.8194 25.4667 38.9755 27.3065C39.0783 28.5178 39.1976 29.6652 39.3343 30.7538C39.3333 30.7674 39.3323 30.7809 39.3309 30.7945C38.4233 37.8733 36.9635 40.8682 35.8572 43.1366C35.7607 43.3345 35.6662 43.5285 35.5745 43.72C35.4039 43.7118 35.2308 43.7088 35.0567 43.7122C34.1303 43.7297 33.1727 43.3592 32.5556 42.7458C32.0213 42.2148 31.7551 41.5393 31.7648 40.7392C31.791 38.6143 33.517 38.061 33.7133 38.0052C34.0168 37.9189 34.2073 37.629 34.1671 37.3157C34.1249 36.9903 33.7409 34.0469 33.309 31.0205C32.4407 24.9367 32.2172 24.3825 32.1333 24.174C30.9382 21.2111 28.3013 19.6763 28.1893 19.6123L27.2803 19.0911V49.3179C27.2803 49.7538 27.6352 50.1088 28.071 50.1088H34.4178C34.9792 54.2136 38.752 56.742 39.5331 57.2244C39.6426 57.2919 39.7667 57.3263 39.8909 57.3263C39.9408 57.3263 39.9912 57.3205 40.0402 57.3093C40.1653 57.3069 40.2894 57.2715 40.3989 57.2031C40.8556 56.9175 42.0396 56.1169 43.1619 54.8508C44.4753 53.3694 45.2534 51.7769 45.4803 50.1088H51.9158C52.3027 50.1088 52.6178 49.7941 52.6178 49.4066V19.0911L51.7073 19.6119ZM31.0061 24.6283C31.0822 24.8165 31.3411 25.8329 32.1057 31.1917C32.4538 33.6323 32.7708 36.0185 32.9017 37.015C32.6128 37.1469 32.2414 37.3574 31.8763 37.6794C31.1685 38.304 30.7322 39.1356 30.5955 40.1088L28.4967 40.0497V21.3226C29.2806 21.9671 30.3816 23.08 31.0061 24.6283ZM34.3363 48.8916H28.4967V41.2668L30.5824 41.326C30.6924 42.2056 31.072 42.9863 31.6984 43.6089C32.5342 44.4396 33.7603 44.9299 34.9937 44.9299C35.0083 44.9299 35.0233 44.9299 35.0378 44.9299C34.5962 46.0447 34.3096 47.2303 34.3363 48.8916ZM36.9514 43.67C37.5904 42.3593 38.386 40.7276 39.1137 38.1992C39.4264 37.113 39.7042 35.94 39.949 34.6705C40.1939 35.94 40.4721 37.113 40.7844 38.1992C41.5116 40.7281 42.3072 42.3593 42.9467 43.67C42.984 43.7462 43.0203 43.8218 43.0567 43.896C42.0342 44.1356 41.1359 44.6011 40.4712 45.2538C40.2719 45.4497 40.0974 45.6582 39.949 45.8774C39.8007 45.6582 39.6261 45.4497 39.4269 45.2538C38.7622 44.6011 37.8638 44.1356 36.8414 43.896C36.8777 43.8218 36.9141 43.7462 36.9514 43.67ZM36.3139 45.0273C37.2248 45.1961 38.0161 45.5733 38.5746 46.1223C39.0099 46.55 39.2698 47.0596 39.3372 47.6095C39.3294 47.705 39.3256 47.8015 39.3256 47.899V48.8921H35.5527C35.5217 47.2502 35.8213 46.1664 36.3139 45.0273ZM35.6477 50.1088H39.326V55.6019C38.0941 54.6626 36.0802 52.7593 35.6477 50.1088ZM40.572 55.5995V50.1083H44.2498C43.8164 52.755 41.7928 54.6651 40.572 55.5995ZM44.3449 48.8916H40.572V47.8985C40.572 47.8011 40.5681 47.705 40.5604 47.609C40.6278 47.0586 40.8876 46.5495 41.323 46.1218C41.882 45.5729 42.6727 45.1956 43.5837 45.0268C44.0768 46.1664 44.3759 47.2502 44.3449 48.8916ZM46.9958 37.0165C47.7459 31.293 48.6243 25.2917 48.892 24.6288C49.513 23.0882 50.616 21.9729 51.4009 21.3255V40.0492L49.3036 40.1069C49.0432 38.2108 47.724 37.3516 46.9958 37.0165ZM45.5613 48.8916C45.5879 47.2303 45.3014 46.0447 44.8593 44.9294C44.8738 44.9294 44.8888 44.9294 44.9034 44.9294C46.1368 44.9294 47.3629 44.4391 48.1987 43.6085C48.8255 42.9853 49.2052 42.2041 49.3152 41.324L51.4009 41.2663V48.8916H45.5613Z" fill="#0099E6"/>
<path d="M31.8923 36.5024C31.7314 36.6047 31.5651 36.723 31.3978 36.8593C30.8325 37.3219 30.1882 38.0565 29.8498 39.1525L29.4314 39.1408V23.6846C29.6971 24.0643 29.9405 24.4905 30.132 24.9614C30.3899 25.7547 31.1986 31.2473 31.8923 36.5024Z" fill="#FFF500"/>
<path d="M33.7802 45.732C33.5965 46.3949 33.4675 47.1194 33.42 47.9564H29.4314V42.2285L29.8197 42.2397C30.0457 43.0049 30.4568 43.6925 31.0395 44.272C31.7687 44.9959 32.7403 45.5056 33.7802 45.732Z" fill="#FFF500"/>
<path d="M37.9195 46.789C37.649 46.5237 37.2927 46.3079 36.8796 46.1518C36.691 46.7075 36.5635 47.2797 36.5116 47.9567H38.3908V47.8985C38.3908 47.8131 38.3932 47.7283 38.398 47.6434C38.3423 47.3331 38.1818 47.0465 37.9195 46.789ZM36.8651 51.0436C37.2209 51.9873 37.7944 52.8044 38.3908 53.4682V51.0436H36.8651ZM36.8651 51.0436C37.2209 51.9873 37.7944 52.8044 38.3908 53.4682C38.401 53.4794 38.4106 53.4905 38.4208 53.5017V51.0436H36.8651ZM38.398 47.6434C38.3418 47.3331 38.1818 47.0465 37.9195 46.789C37.649 46.5237 37.2927 46.3079 36.8796 46.1518C36.691 46.7075 36.5635 47.2797 36.5116 47.9567H38.4208V47.8985C38.4208 47.8122 38.4136 47.7268 38.398 47.6434ZM39.949 38.6724C39.3493 40.7072 38.7117 42.1595 38.1508 43.3364C38.83 43.6157 39.4394 43.9939 39.949 44.4609C40.458 43.9944 41.0679 43.6157 41.7467 43.3364C41.1857 42.16 40.5487 40.7072 39.949 38.6724ZM41.4771 51.0436V53.5153C41.4873 53.5041 41.4975 53.493 41.5072 53.4818C42.1074 52.8165 42.6819 51.9955 43.0373 51.0436H41.4771ZM43.0184 46.1518C42.6048 46.3084 42.2485 46.5237 41.9784 46.789C41.7161 47.0465 41.5557 47.3326 41.4999 47.6434C41.4849 47.7268 41.4771 47.8122 41.4771 47.8985V47.9567H43.3863C43.3345 47.2797 43.2069 46.708 43.0184 46.1518ZM50.0783 42.2385C49.8523 43.0042 49.4412 43.6923 48.858 44.2718C48.1293 44.9958 47.1577 45.5054 46.1173 45.7323C46.301 46.3952 46.4305 47.1197 46.4775 47.9567H50.4661V42.2274L50.0783 42.2385ZM49.7656 24.9609C49.5663 25.5768 48.8929 29.7839 48.0062 36.5015C48.2558 36.66 48.5181 36.8574 48.7746 37.1013C49.3733 37.6701 49.8009 38.364 50.0448 39.1511L50.4661 39.1394V23.6841C50.2009 24.0643 49.9571 24.4906 49.7656 24.9609ZM50.0783 42.2385C49.8523 43.0042 49.4412 43.6923 48.858 44.2718C48.1293 44.9958 47.1577 45.5054 46.1173 45.7323C46.301 46.3952 46.4305 47.1197 46.4775 47.9567H50.4661V42.2274L50.0783 42.2385ZM49.7656 24.9609C49.5663 25.5768 48.8929 29.7839 48.0062 36.5015C48.2558 36.66 48.5181 36.8574 48.7746 37.1013C49.3733 37.6701 49.8009 38.364 50.0448 39.1511L50.4661 39.1394V23.6841C50.2009 24.0643 49.9571 24.4906 49.7656 24.9609ZM43.0184 46.1518C42.6048 46.3084 42.2485 46.5237 41.9784 46.789C41.7161 47.0465 41.5557 47.3326 41.4999 47.6434C41.4849 47.7268 41.4771 47.8122 41.4771 47.8985V47.9567H43.3863C43.3345 47.2797 43.2069 46.708 43.0184 46.1518ZM41.4771 51.0436V53.5153C41.4873 53.5041 41.4975 53.493 41.5072 53.4818C42.1074 52.8165 42.6819 51.9955 43.0373 51.0436H41.4771ZM39.949 38.6724C39.3493 40.7072 38.7117 42.1595 38.1508 43.3364C38.83 43.6157 39.4394 43.9939 39.949 44.4609C40.458 43.9944 41.0679 43.6157 41.7467 43.3364C41.1857 42.16 40.5487 40.7072 39.949 38.6724ZM38.398 47.6434C38.3418 47.3331 38.1818 47.0465 37.9195 46.789C37.649 46.5237 37.2927 46.3079 36.8796 46.1518C36.691 46.7075 36.5635 47.2797 36.5116 47.9567H38.4208V47.8985C38.4208 47.8122 38.4136 47.7268 38.398 47.6434ZM36.8651 51.0436C37.2209 51.9873 37.7944 52.8044 38.3908 53.4682C38.401 53.4794 38.4106 53.4905 38.4208 53.5017V51.0436H36.8651ZM36.8651 51.0436C37.2209 51.9873 37.7944 52.8044 38.3908 53.4682C38.401 53.4794 38.4106 53.4905 38.4208 53.5017V51.0436H36.8651ZM38.398 47.6434C38.3418 47.3331 38.1818 47.0465 37.9195 46.789C37.649 46.5237 37.2927 46.3079 36.8796 46.1518C36.691 46.7075 36.5635 47.2797 36.5116 47.9567H38.4208V47.8985C38.4208 47.8122 38.4136 47.7268 38.398 47.6434ZM39.949 38.6724C39.3493 40.7072 38.7117 42.1595 38.1508 43.3364C38.83 43.6157 39.4394 43.9939 39.949 44.4609C40.458 43.9944 41.0679 43.6157 41.7467 43.3364C41.1857 42.16 40.5487 40.7072 39.949 38.6724ZM41.4771 51.0436V53.5153C41.4873 53.5041 41.4975 53.493 41.5072 53.4818C42.1074 52.8165 42.6819 51.9955 43.0373 51.0436H41.4771ZM43.0184 46.1518C42.6048 46.3084 42.2485 46.5237 41.9784 46.789C41.7161 47.0465 41.5557 47.3326 41.4999 47.6434C41.4849 47.7268 41.4771 47.8122 41.4771 47.8985V47.9567H43.3863C43.3345 47.2797 43.2069 46.708 43.0184 46.1518ZM49.7656 24.9609C49.5663 25.5768 48.8929 29.7839 48.0062 36.5015C48.2558 36.66 48.5181 36.8574 48.7746 37.1013C49.3733 37.6701 49.8009 38.364 50.0448 39.1511L50.4661 39.1394V23.6841C50.2009 24.0643 49.9571 24.4906 49.7656 24.9609ZM50.0783 42.2385C49.8523 43.0042 49.4412 43.6923 48.858 44.2718C48.1293 44.9958 47.1577 45.5054 46.1173 45.7323C46.301 46.3952 46.4305 47.1197 46.4775 47.9567H50.4661V42.2274L50.0783 42.2385ZM50.0783 42.2385C49.8523 43.0042 49.4412 43.6923 48.858 44.2718C48.1293 44.9958 47.1577 45.5054 46.1173 45.7323C46.301 46.3952 46.4305 47.1197 46.4775 47.9567H50.4661V42.2274L50.0783 42.2385ZM49.7656 24.9609C49.5663 25.5768 48.8929 29.7839 48.0062 36.5015C48.2558 36.66 48.5181 36.8574 48.7746 37.1013C49.3733 37.6701 49.8009 38.364 50.0448 39.1511L50.4661 39.1394V23.6841C50.2009 24.0643 49.9571 24.4906 49.7656 24.9609ZM43.0184 46.1518C42.6048 46.3084 42.2485 46.5237 41.9784 46.789C41.7161 47.0465 41.5557 47.3326 41.4999 47.6434C41.4849 47.7268 41.4771 47.8122 41.4771 47.8985V47.9567H43.3863C43.3345 47.2797 43.2069 46.708 43.0184 46.1518ZM41.4771 51.0436V53.5153C41.4873 53.5041 41.4975 53.493 41.5072 53.4818C42.1074 52.8165 42.6819 51.9955 43.0373 51.0436H41.4771ZM39.949 38.6724C39.3493 40.7072 38.7117 42.1595 38.1508 43.3364C38.83 43.6157 39.4394 43.9939 39.949 44.4609C40.458 43.9944 41.0679 43.6157 41.7467 43.3364C41.1857 42.16 40.5487 40.7072 39.949 38.6724ZM38.398 47.6434C38.3418 47.3331 38.1818 47.0465 37.9195 46.789C37.649 46.5237 37.2927 46.3079 36.8796 46.1518C36.691 46.7075 36.5635 47.2797 36.5116 47.9567H38.4208V47.8985C38.4208 47.8122 38.4136 47.7268 38.398 47.6434ZM36.8651 51.0436C37.2209 51.9873 37.7944 52.8044 38.3908 53.4682C38.401 53.4794 38.4106 53.4905 38.4208 53.5017V51.0436H36.8651ZM36.8651 51.0436C37.2209 51.9873 37.7944 52.8044 38.3908 53.4682C38.401 53.4794 38.4106 53.4905 38.4208 53.5017V51.0436H36.8651ZM38.398 47.6434C38.3418 47.3331 38.1818 47.0465 37.9195 46.789C37.649 46.5237 37.2927 46.3079 36.8796 46.1518C36.691 46.7075 36.5635 47.2797 36.5116 47.9567H38.4208V47.8985C38.4208 47.8122 38.4136 47.7268 38.398 47.6434ZM39.949 38.6724C39.3493 40.7072 38.7117 42.1595 38.1508 43.3364C38.83 43.6157 39.4394 43.9939 39.949 44.4609C40.458 43.9944 41.0679 43.6157 41.7467 43.3364C41.1857 42.16 40.5487 40.7072 39.949 38.6724ZM41.4771 51.0436V53.5153C41.4873 53.5041 41.4975 53.493 41.5072 53.4818C42.1074 52.8165 42.6819 51.9955 43.0373 51.0436H41.4771ZM43.0184 46.1518C42.6048 46.3084 42.2485 46.5237 41.9784 46.789C41.7161 47.0465 41.5557 47.3326 41.4999 47.6434C41.4849 47.7268 41.4771 47.8122 41.4771 47.8985V47.9567H43.3863C43.3345 47.2797 43.2069 46.708 43.0184 46.1518ZM49.7656 24.9609C49.5663 25.5768 48.8929 29.7839 48.0062 36.5015C48.2558 36.66 48.5181 36.8574 48.7746 37.1013C49.3733 37.6701 49.8009 38.364 50.0448 39.1511L50.4661 39.1394V23.6841C50.2009 24.0643 49.9571 24.4906 49.7656 24.9609ZM50.0783 42.2385C49.8523 43.0042 49.4412 43.6923 48.858 44.2718C48.1293 44.9958 47.1577 45.5054 46.1173 45.7323C46.301 46.3952 46.4305 47.1197 46.4775 47.9567H50.4661V42.2274L50.0783 42.2385ZM48.858 44.2718C48.1293 44.9958 47.1577 45.5054 46.1173 45.7323C46.301 46.3952 46.4305 47.1197 46.4775 47.9567H50.4661V42.2274L50.0783 42.2385C49.8523 43.0042 49.4412 43.6923 48.858 44.2718ZM49.7656 24.9609C49.5663 25.5768 48.8929 29.7839 48.0062 36.5015C48.2558 36.66 48.5181 36.8574 48.7746 37.1013C49.3733 37.6701 49.8009 38.364 50.0448 39.1511L50.4661 39.1394V23.6841C50.2009 24.0643 49.9571 24.4906 49.7656 24.9609ZM41.9784 46.789C41.7161 47.0465 41.5557 47.3326 41.4999 47.6434C41.4849 47.7268 41.4771 47.8122 41.4771 47.8985V47.9567H43.3863C43.3345 47.2797 43.2069 46.7075 43.0184 46.1518C42.6048 46.3084 42.2485 46.5237 41.9784 46.789ZM41.4771 51.0436V53.5153C41.4873 53.5041 41.4975 53.493 41.5072 53.4818C42.1074 52.8165 42.6819 51.9955 43.0373 51.0436H41.4771ZM39.949 38.6724C39.3493 40.7072 38.7117 42.1595 38.1508 43.3364C38.83 43.6157 39.4394 43.9939 39.949 44.4609C40.458 43.9944 41.0679 43.6157 41.7467 43.3364C41.1857 42.16 40.5487 40.7072 39.949 38.6724ZM37.9195 46.789C37.649 46.5237 37.2927 46.3079 36.8796 46.1518C36.691 46.7075 36.5635 47.2797 36.5116 47.9567H38.4208V47.8985C38.4208 47.8117 38.4136 47.7268 38.398 47.6434C38.3423 47.3331 38.1818 47.0465 37.9195 46.789ZM36.8651 51.0436C37.2209 51.9873 37.7944 52.8044 38.3908 53.4682C38.401 53.4794 38.4106 53.4905 38.4208 53.5017V51.0436H36.8651ZM40.4144 10.9526C24.7209 10.9526 11.9983 23.6778 11.9983 39.3741C11.9983 42.8791 12.6324 46.2357 13.7926 49.3353C14.1863 50.3871 14.6401 51.4093 15.1506 52.3975C18.0284 52.4936 26.998 53.6171 34.6388 63.4027C46.2351 57.4121 57.3685 54.6771 65.1183 53.4285C67.4808 49.2834 68.8305 44.4861 68.8305 39.3736C68.8305 23.6773 56.1079 10.9526 40.4144 10.9526ZM52.8214 51.0436H46.2555C46.1013 51.6949 45.8705 52.3364 45.5641 52.9629C45.1389 53.8324 44.5664 54.6767 43.8615 55.4709C42.6581 56.8287 41.3855 57.689 40.8944 57.9964C40.6665 58.139 40.411 58.2204 40.1516 58.2403C40.0653 58.2544 39.9781 58.2612 39.8913 58.2612C39.5965 58.2612 39.3017 58.1807 39.0419 58.0202C38.5571 57.721 37.299 56.8791 36.0884 55.5301C35.3713 54.731 34.7876 53.8814 34.3537 53.0051C34.0371 52.3655 33.7996 51.7099 33.642 51.0441H27.0761C26.6723 51.0441 26.3455 50.7168 26.3455 50.3134V18.6071C26.3455 18.1047 26.888 17.79 27.3243 18.0392L28.6552 18.8001C28.7783 18.8704 31.6867 20.5632 33.0015 23.8233C33.1257 24.1317 33.3574 24.7059 34.2684 31.115C34.7071 34.2005 35.0945 37.1857 35.0984 37.2153L35.1561 37.6594C35.2269 38.205 34.8671 38.7137 34.329 38.8286L33.9595 38.9076C33.8926 38.9299 33.579 39.0424 33.2876 39.3048C32.9007 39.6525 32.7092 40.1253 32.7014 40.7503C32.6947 41.2954 32.8634 41.7313 33.2163 42.0824C33.6308 42.4946 34.297 42.7613 34.9379 42.7768C34.9641 42.7608 34.9922 42.7433 35.0189 42.7268C36.0913 40.5273 37.505 37.6284 38.3946 30.7591C38.2623 29.6908 38.1464 28.5673 38.0461 27.3845C37.8507 25.0783 37.7552 23.544 37.7406 22.3705V22.3574C37.7401 22.3283 37.7401 22.2997 37.7397 22.2706C37.7149 20.2645 37.8948 18.4087 38.496 16.7983C38.7243 16.1873 39.3148 15.7824 39.9669 15.7902C40.6185 15.7984 41.1998 16.2174 41.4131 16.8332C41.4335 16.8919 41.4534 16.9501 41.4732 17.0073C41.4941 17.0548 41.513 17.1033 41.5295 17.1533C41.5692 17.2745 41.607 17.3972 41.6424 17.5208C41.9663 18.5503 42.1539 19.4629 42.2029 20.7247C42.2606 22.2027 42.1253 24.2054 41.8553 27.3841C41.7549 28.5668 41.6386 29.6903 41.5062 30.7586C42.3958 37.6274 43.8096 40.5263 44.882 42.7259C44.9082 42.7419 44.9363 42.7593 44.963 42.7758C45.6034 42.7603 46.2695 42.4936 46.6845 42.0814C47.0375 41.7303 47.2062 41.2944 47.1994 40.7493C47.1921 40.1437 47.0123 39.6825 46.6506 39.3382C46.3355 39.0386 45.9762 38.9178 45.9365 38.9052C45.1835 38.6642 44.7108 37.9203 44.8127 37.1357C44.8859 36.5752 45.2713 33.6317 45.696 30.6669C46.5546 24.6768 46.7786 24.121 46.8988 23.8228C48.2137 20.5622 51.1221 18.8699 51.2452 18.7996L52.576 18.0387C53.0119 17.7895 53.5549 18.1042 53.5549 18.6066V50.3124C53.5525 50.7163 53.2252 51.0436 52.8214 51.0436ZM48.858 44.2718C48.1293 44.9958 47.1577 45.5054 46.1173 45.7323C46.301 46.3952 46.4305 47.1197 46.4775 47.9567H50.4661V42.2274L50.0783 42.2385C49.8523 43.0042 49.4412 43.6923 48.858 44.2718ZM48.0062 36.502C48.2558 36.6605 48.5181 36.8579 48.7746 37.1018C49.3733 37.6706 49.8009 38.3645 50.0448 39.1515L50.4661 39.1399V23.6841C50.2004 24.0643 49.9571 24.4906 49.7656 24.9609C49.5668 25.5768 48.8934 29.7839 48.0062 36.502ZM41.9784 46.789C41.7161 47.0465 41.5557 47.3326 41.4999 47.6434C41.4849 47.7268 41.4771 47.8122 41.4771 47.8985V47.9567H43.3863C43.3345 47.2797 43.2069 46.7075 43.0184 46.1518C42.6048 46.3084 42.2485 46.5237 41.9784 46.789ZM41.4771 51.0436V53.5153C41.4873 53.5041 41.4975 53.493 41.5072 53.4818C42.1074 52.8165 42.6819 51.9955 43.0373 51.0436H41.4771ZM39.949 38.6724C39.3493 40.7072 38.7117 42.1595 38.1508 43.3364C38.83 43.6157 39.4394 43.9939 39.949 44.4609C40.458 43.9944 41.0679 43.6157 41.7467 43.3364C41.1857 42.16 40.5487 40.7072 39.949 38.6724ZM37.9195 46.789C37.649 46.5237 37.2927 46.3079 36.8796 46.1518C36.691 46.7075 36.5635 47.2797 36.5116 47.9567H38.4208V47.8985C38.4208 47.8117 38.4136 47.7268 38.398 47.6434C38.3423 47.3331 38.1818 47.0465 37.9195 46.789ZM36.8651 51.0436C37.2209 51.9873 37.7944 52.8044 38.3908 53.4682C38.401 53.4794 38.4106 53.4905 38.4208 53.5017V51.0436H36.8651ZM36.8651 51.0436C37.2209 51.9873 37.7944 52.8044 38.3908 53.4682C38.401 53.4794 38.4106 53.4905 38.4208 53.5017V51.0436H36.8651ZM38.398 47.6434C38.3418 47.3331 38.1818 47.0465 37.9195 46.789C37.649 46.5237 37.2927 46.3079 36.8796 46.1518C36.691 46.7075 36.5635 47.2797 36.5116 47.9567H38.4208V47.8985C38.4208 47.8122 38.4136 47.7268 38.398 47.6434ZM39.949 38.6724C39.3493 40.7072 38.7117 42.1595 38.1508 43.3364C38.83 43.6157 39.4394 43.9939 39.949 44.4609C40.458 43.9944 41.0679 43.6157 41.7467 43.3364C41.1857 42.16 40.5487 40.7072 39.949 38.6724ZM41.4771 51.0436V53.5153C41.4873 53.5041 41.4975 53.493 41.5072 53.4818C42.1074 52.8165 42.6819 51.9955 43.0373 51.0436H41.4771ZM43.0184 46.1518C42.6048 46.3084 42.2485 46.5237 41.9784 46.789C41.7161 47.0465 41.5557 47.3326 41.4999 47.6434C41.4849 47.7268 41.4771 47.8122 41.4771 47.8985V47.9567H43.3863C43.3345 47.2797 43.2069 46.708 43.0184 46.1518ZM49.7656 24.9609C49.5663 25.5768 48.8929 29.7839 48.0062 36.5015C48.2558 36.66 48.5181 36.8574 48.7746 37.1013C49.3733 37.6701 49.8009 38.364 50.0448 39.1511L50.4661 39.1394V23.6841C50.2009 24.0643 49.9571 24.4906 49.7656 24.9609ZM50.0783 42.2385C49.8523 43.0042 49.4412 43.6923 48.858 44.2718C48.1293 44.9958 47.1577 45.5054 46.1173 45.7323C46.301 46.3952 46.4305 47.1197 46.4775 47.9567H50.4661V42.2274L50.0783 42.2385ZM50.0783 42.2385C49.8523 43.0042 49.4412 43.6923 48.858 44.2718C48.1293 44.9958 47.1577 45.5054 46.1173 45.7323C46.301 46.3952 46.4305 47.1197 46.4775 47.9567H50.4661V42.2274L50.0783 42.2385ZM49.7656 24.9609C49.5663 25.5768 48.8929 29.7839 48.0062 36.5015C48.2558 36.66 48.5181 36.8574 48.7746 37.1013C49.3733 37.6701 49.8009 38.364 50.0448 39.1511L50.4661 39.1394V23.6841C50.2009 24.0643 49.9571 24.4906 49.7656 24.9609ZM43.0184 46.1518C42.6048 46.3084 42.2485 46.5237 41.9784 46.789C41.7161 47.0465 41.5557 47.3326 41.4999 47.6434C41.4849 47.7268 41.4771 47.8122 41.4771 47.8985V47.9567H43.3863C43.3345 47.2797 43.2069 46.708 43.0184 46.1518ZM41.4771 51.0436V53.5153C41.4873 53.5041 41.4975 53.493 41.5072 53.4818C42.1074 52.8165 42.6819 51.9955 43.0373 51.0436H41.4771ZM39.949 38.6724C39.3493 40.7072 38.7117 42.1595 38.1508 43.3364C38.83 43.6157 39.4394 43.9939 39.949 44.4609C40.458 43.9944 41.0679 43.6157 41.7467 43.3364C41.1857 42.16 40.5487 40.7072 39.949 38.6724ZM38.398 47.6434C38.3418 47.3331 38.1818 47.0465 37.9195 46.789C37.649 46.5237 37.2927 46.3079 36.8796 46.1518C36.691 46.7075 36.5635 47.2797 36.5116 47.9567H38.4208V47.8985C38.4208 47.8122 38.4136 47.7268 38.398 47.6434ZM36.8651 51.0436C37.2209 51.9873 37.7944 52.8044 38.3908 53.4682C38.401 53.4794 38.4106 53.4905 38.4208 53.5017V51.0436H36.8651ZM36.8651 51.0436C37.2209 51.9873 37.7944 52.8044 38.3908 53.4682C38.401 53.4794 38.4106 53.4905 38.4208 53.5017V51.0436H36.8651ZM38.398 47.6434C38.3418 47.3331 38.1818 47.0465 37.9195 46.789C37.649 46.5237 37.2927 46.3079 36.8796 46.1518C36.691 46.7075 36.5635 47.2797 36.5116 47.9567H38.4208V47.8985C38.4208 47.8122 38.4136 47.7268 38.398 47.6434ZM39.949 38.6724C39.3493 40.7072 38.7117 42.1595 38.1508 43.3364C38.83 43.6157 39.4394 43.9939 39.949 44.4609C40.458 43.9944 41.0679 43.6157 41.7467 43.3364C41.1857 42.16 40.5487 40.7072 39.949 38.6724ZM41.4771 51.0436V53.5153C41.4873 53.5041 41.4975 53.493 41.5072 53.4818C42.1074 52.8165 42.6819 51.9955 43.0373 51.0436H41.4771ZM43.0184 46.1518C42.6048 46.3084 42.2485 46.5237 41.9784 46.789C41.7161 47.0465 41.5557 47.3326 41.4999 47.6434C41.4849 47.7268 41.4771 47.8122 41.4771 47.8985V47.9567H43.3863C43.3345 47.2797 43.2069 46.708 43.0184 46.1518ZM49.7656 24.9609C49.5663 25.5768 48.8929 29.7839 48.0062 36.5015C48.2558 36.66 48.5181 36.8574 48.7746 37.1013C49.3733 37.6701 49.8009 38.364 50.0448 39.1511L50.4661 39.1394V23.6841C50.2009 24.0643 49.9571 24.4906 49.7656 24.9609ZM50.0783 42.2385C49.8523 43.0042 49.4412 43.6923 48.858 44.2718C48.1293 44.9958 47.1577 45.5054 46.1173 45.7323C46.301 46.3952 46.4305 47.1197 46.4775 47.9567H50.4661V42.2274L50.0783 42.2385ZM50.0783 42.2385C49.8523 43.0042 49.4412 43.6923 48.858 44.2718C48.1293 44.9958 47.1577 45.5054 46.1173 45.7323C46.301 46.3952 46.4305 47.1197 46.4775 47.9567H50.4661V42.2274L50.0783 42.2385ZM49.7656 24.9609C49.5663 25.5768 48.8929 29.7839 48.0062 36.5015C48.2558 36.66 48.5181 36.8574 48.7746 37.1013C49.3733 37.6701 49.8009 38.364 50.0448 39.1511L50.4661 39.1394V23.6841C50.2009 24.0643 49.9571 24.4906 49.7656 24.9609ZM43.0184 46.1518C42.6048 46.3084 42.2485 46.5237 41.9784 46.789C41.7161 47.0465 41.5557 47.3326 41.4999 47.6434C41.4849 47.7268 41.4771 47.8122 41.4771 47.8985V47.9567H43.3863C43.3345 47.2797 43.2069 46.708 43.0184 46.1518ZM41.4771 51.0436V53.5153C41.4873 53.5041 41.4975 53.493 41.5072 53.4818C42.1074 52.8165 42.6819 51.9955 43.0373 51.0436H41.4771ZM39.949 38.6724C39.3493 40.7072 38.7117 42.1595 38.1508 43.3364C38.83 43.6157 39.4394 43.9939 39.949 44.4609C40.458 43.9944 41.0679 43.6157 41.7467 43.3364C41.1857 42.16 40.5487 40.7072 39.949 38.6724ZM38.398 47.6434C38.3418 47.3331 38.1818 47.0465 37.9195 46.789C37.649 46.5237 37.2927 46.3079 36.8796 46.1518C36.691 46.7075 36.5635 47.2797 36.5116 47.9567H38.4208V47.8985C38.4208 47.8122 38.4136 47.7268 38.398 47.6434ZM36.8651 51.0436C37.2209 51.9873 37.7944 52.8044 38.3908 53.4682C38.401 53.4794 38.4106 53.4905 38.4208 53.5017V51.0436H36.8651ZM36.8651 51.0436C37.2209 51.9873 37.7944 52.8044 38.3908 53.4682C38.401 53.4794 38.4106 53.4905 38.4208 53.5017V51.0436H36.8651ZM38.398 47.6434C38.3418 47.3331 38.1818 47.0465 37.9195 46.789C37.649 46.5237 37.2927 46.3079 36.8796 46.1518C36.691 46.7075 36.5635 47.2797 36.5116 47.9567H38.4208V47.8985C38.4208 47.8122 38.4136 47.7268 38.398 47.6434ZM39.949 38.6724C39.3493 40.7072 38.7117 42.1595 38.1508 43.3364C38.83 43.6157 39.4394 43.9939 39.949 44.4609C40.458 43.9944 41.0679 43.6157 41.7467 43.3364C41.1857 42.16 40.5487 40.7072 39.949 38.6724ZM41.4771 51.0436V53.5153C41.4873 53.5041 41.4975 53.493 41.5072 53.4818C42.1074 52.8165 42.6819 51.9955 43.0373 51.0436H41.4771ZM43.0184 46.1518C42.6048 46.3084 42.2485 46.5237 41.9784 46.789C41.7161 47.0465 41.5557 47.3326 41.4999 47.6434C41.4849 47.7268 41.4771 47.8122 41.4771 47.8985V47.9567H43.3863C43.3345 47.2797 43.2069 46.708 43.0184 46.1518ZM50.0783 42.2385C49.8523 43.0042 49.4412 43.6923 48.858 44.2718C48.1293 44.9958 47.1577 45.5054 46.1173 45.7323C46.301 46.3952 46.4305 47.1197 46.4775 47.9567H50.4661V42.2274L50.0783 42.2385ZM49.7656 24.9609C49.5663 25.5768 48.8929 29.7839 48.0062 36.5015C48.2558 36.66 48.5181 36.8574 48.7746 37.1013C49.3733 37.6701 49.8009 38.364 50.0448 39.1511L50.4661 39.1394V23.6841C50.2009 24.0643 49.9571 24.4906 49.7656 24.9609ZM50.0783 42.2385C49.8523 43.0042 49.4412 43.6923 48.858 44.2718C48.1293 44.9958 47.1577 45.5054 46.1173 45.7323C46.301 46.3952 46.4305 47.1197 46.4775 47.9567H50.4661V42.2274L50.0783 42.2385ZM49.7656 24.9609C49.5663 25.5768 48.8929 29.7839 48.0062 36.5015C48.2558 36.66 48.5181 36.8574 48.7746 37.1013C49.3733 37.6701 49.8009 38.364 50.0448 39.1511L50.4661 39.1394V23.6841C50.2009 24.0643 49.9571 24.4906 49.7656 24.9609ZM43.0184 46.1518C42.6048 46.3084 42.2485 46.5237 41.9784 46.789C41.7161 47.0465 41.5557 47.3326 41.4999 47.6434C41.4849 47.7268 41.4771 47.8122 41.4771 47.8985V47.9567H43.3863C43.3345 47.2797 43.2069 46.708 43.0184 46.1518ZM41.4771 51.0436V53.5153C41.4873 53.5041 41.4975 53.493 41.5072 53.4818C42.1074 52.8165 42.6819 51.9955 43.0373 51.0436H41.4771ZM39.949 38.6724C39.3493 40.7072 38.7117 42.1595 38.1508 43.3364C38.83 43.6157 39.4394 43.9939 39.949 44.4609C40.458 43.9944 41.0679 43.6157 41.7467 43.3364C41.1857 42.16 40.5487 40.7072 39.949 38.6724ZM38.398 47.6434C38.3418 47.3331 38.1818 47.0465 37.9195 46.789C37.649 46.5237 37.2927 46.3079 36.8796 46.1518C36.691 46.7075 36.5635 47.2797 36.5116 47.9567H38.4208V47.8985C38.4208 47.8122 38.4136 47.7268 38.398 47.6434ZM36.8651 51.0436C37.2209 51.9873 37.7944 52.8044 38.3908 53.4682C38.401 53.4794 38.4106 53.4905 38.4208 53.5017V51.0436H36.8651ZM36.8651 51.0436C37.2209 51.9873 37.7944 52.8044 38.3908 53.4682V51.0436H36.8651ZM37.9195 46.789C37.649 46.5237 37.2927 46.3079 36.8796 46.1518C36.691 46.7075 36.5635 47.2797 36.5116 47.9567H38.3908V47.8985C38.3908 47.8131 38.3932 47.7283 38.398 47.6434C38.3423 47.3331 38.1818 47.0465 37.9195 46.789Z" fill="#FFF500"/>
<path d="M7.18604 50.3934L6.67236 48.574L8.81135 47.9402L8.74602 47.7084L9.73834 47.4146L9.86285 47.8563L9.30183 48.0226L9.76959 49.6806L10.3306 49.5142L10.4556 49.956L9.46327 50.2499L9.40031 50.0273C9.14986 49.9832 8.87432 49.987 8.57416 50.0384C8.274 50.0898 7.90141 50.181 7.45732 50.3129L7.18604 50.3934ZM7.47437 49.7591C8.25506 49.5278 8.84497 49.4318 9.2436 49.4706L8.96096 48.4702L7.25327 48.976L7.47437 49.7591Z" fill="#733D19"/>
<path d="M9.11316 47.2681L6.49079 47.8136L6.09595 45.822L6.53956 45.7299L6.82693 47.1793L7.40831 47.0586L7.14082 45.71L7.58254 45.6184L7.85003 46.9669L8.56397 46.8185L8.26666 45.3182L8.70837 45.2266L9.11316 47.2681Z" fill="#733D19"/>
<path d="M8.64563 44.8109L5.98965 45.1455L5.88408 44.2639C5.84383 43.9298 5.83105 43.7106 5.84573 43.6059C5.86703 43.4449 5.93805 43.3038 6.05877 43.1816C6.1795 43.0599 6.34568 42.9852 6.55683 42.959C6.71969 42.9386 6.86078 42.9517 6.97913 42.9983C7.09749 43.0448 7.19407 43.1108 7.2684 43.1961C7.34321 43.2815 7.39623 43.3712 7.42843 43.4653C7.46962 43.5933 7.50512 43.7814 7.53495 44.0302L7.57803 44.3885L8.57983 44.2625L8.64563 44.8109ZM6.37314 44.5394L7.12685 44.4443L7.09087 44.1437C7.06483 43.9274 7.03358 43.7843 6.99713 43.7145C6.96067 43.6452 6.91001 43.5933 6.8461 43.5593C6.78218 43.5254 6.7107 43.5133 6.63211 43.523C6.53552 43.5351 6.4593 43.5744 6.40344 43.6403C6.34757 43.7063 6.31727 43.7848 6.31206 43.876C6.3078 43.9429 6.31774 44.0758 6.34142 44.2736L6.37314 44.5394Z" fill="#733D19"/>
<path d="M5.62252 40.7774L6.76019 40.725C6.74883 40.6334 6.71237 40.565 6.65083 40.5204C6.58928 40.4758 6.45009 40.4166 6.23373 40.3434C5.95061 40.2469 5.76834 40.1427 5.68643 40.0316C5.60595 39.922 5.56003 39.7348 5.54866 39.471C5.54819 39.4584 5.5463 39.4318 5.54346 39.391L5.94256 39.3726L5.94446 39.4531C5.94919 39.5651 5.96671 39.6466 5.99654 39.6975C6.02636 39.7484 6.06992 39.7891 6.1272 39.8187C6.18449 39.8483 6.30143 39.891 6.47802 39.9467C6.57176 39.9763 6.65083 40.0088 6.71427 40.0452C6.77818 40.0816 6.83925 40.1485 6.89843 40.2455C6.92826 40.1203 6.99265 40.0156 7.09207 39.9307C7.19149 39.8459 7.33305 39.7508 7.51722 39.6461L8.234 39.2388L8.2624 39.8886L7.58586 40.2493C7.5764 40.2537 7.55793 40.2649 7.53095 40.2838C7.51295 40.2944 7.47224 40.3192 7.40833 40.357C7.28381 40.4326 7.20475 40.4937 7.17161 40.5403C7.13847 40.5868 7.12332 40.6431 7.12616 40.709L8.29697 40.6552L8.32064 41.1949L7.14983 41.2488C7.15267 41.3123 7.17208 41.3661 7.20806 41.4107C7.24404 41.4553 7.32879 41.5087 7.46182 41.5712C7.53663 41.6066 7.57924 41.6275 7.5906 41.6347C7.60954 41.6449 7.62847 41.6546 7.64836 41.6638L8.35378 41.9606L8.38218 42.6104L7.63273 42.271C7.44762 42.1871 7.29991 42.1071 7.19007 42.0304C7.08023 41.9538 7.00496 41.8534 6.96377 41.7293C6.91358 41.8316 6.85866 41.9034 6.79901 41.9456C6.73936 41.9878 6.66361 42.028 6.57129 42.0673C6.40369 42.1376 6.29243 42.1895 6.23657 42.2239C6.1807 42.2583 6.13999 42.3025 6.11442 42.3568C6.08886 42.4111 6.07844 42.4979 6.08365 42.6172C6.08412 42.6322 6.08602 42.656 6.08838 42.688L5.68927 42.7064C5.6888 42.6652 5.68833 42.6385 5.68738 42.6259C5.67555 42.3582 5.70537 42.1662 5.77733 42.0489C5.85024 41.9335 6.0221 41.8151 6.29338 41.6939C6.50359 41.5993 6.6371 41.5276 6.69391 41.4781C6.75072 41.4287 6.78102 41.3579 6.78433 41.2652L5.64667 41.3176L5.62252 40.7774Z" fill="#733D19"/>
<path d="M8.42996 36.5176L8.39398 37.1184L7.77331 37.3191L7.70844 38.4126L8.30166 38.6764L8.26663 39.2622L5.65894 38.03L5.6935 37.4457L8.42996 36.5176ZM7.31265 37.4685L6.29902 37.7837L7.26815 38.2153L7.31265 37.4685Z" fill="#733D19"/>
<path d="M5.81714 35.8824L5.97195 34.7986C6.00273 34.5843 6.03445 34.4253 6.06664 34.3225C6.09931 34.2196 6.14902 34.1309 6.21625 34.0557C6.28347 33.9806 6.36727 33.9224 6.46717 33.8807C6.56706 33.839 6.67453 33.8269 6.78863 33.8438C6.91267 33.8623 7.02156 33.9137 7.1153 33.9976C7.20904 34.0814 7.27343 34.1862 7.30847 34.3108C7.37901 34.1527 7.47748 34.0378 7.60294 33.9656C7.72888 33.8938 7.86807 33.8695 8.02099 33.8923C8.14124 33.9103 8.25439 33.9568 8.35997 34.031C8.46554 34.1052 8.54508 34.1973 8.59905 34.3069C8.65303 34.4165 8.67717 34.545 8.67196 34.6929C8.66865 34.7855 8.64308 35.0067 8.59574 35.3558L8.46365 36.2791L5.81714 35.8824ZM6.33603 35.4009L6.94818 35.4926L6.99931 35.1337C7.02961 34.9204 7.04571 34.7875 7.04713 34.7346C7.04949 34.6391 7.02866 34.561 6.98369 34.4994C6.93918 34.4379 6.87385 34.401 6.78816 34.3879C6.70625 34.3758 6.63666 34.3889 6.5789 34.4272C6.52114 34.466 6.48042 34.53 6.45628 34.6197C6.44255 34.673 6.41698 34.8287 6.38053 35.0862L6.33603 35.4009ZM7.38942 35.5585L8.09721 35.6647L8.16965 35.158C8.19805 34.9606 8.21036 34.8345 8.20705 34.7802C8.20421 34.6968 8.17864 34.625 8.12988 34.5654C8.08111 34.5058 8.0101 34.4689 7.91588 34.4548C7.83635 34.4427 7.76628 34.4524 7.7052 34.4839C7.64413 34.515 7.59584 34.5659 7.55986 34.6367C7.52388 34.7075 7.48837 34.8675 7.45239 35.1167L7.38942 35.5585Z" fill="#733D19"/>
<path d="M8.869 33.601L6.26367 32.9754L6.38677 32.4367L7.41223 32.683L7.65368 31.6274L6.62822 31.381L6.75131 30.8423L9.35664 31.4678L9.23307 32.0066L8.09398 31.7331L7.85253 32.7887L8.99162 33.0622L8.869 33.601Z" fill="#733D19"/>
<path d="M10.2414 28.6206L10.0591 29.1928L9.40864 29.2272L9.07676 30.2688L9.58618 30.6771L9.40816 31.2353L7.18774 29.3703L7.36481 28.8141L10.2414 28.6206ZM8.9262 29.2525L7.86807 29.2961L8.6999 29.9633L8.9262 29.2525Z" fill="#733D19"/>
<path d="M8.17188 26.5499L8.42232 25.9869L9.94537 25.9947L8.90191 24.9085L9.13579 24.3828L10.612 26.0883C10.7715 26.2735 10.8823 26.4384 10.9448 26.5824C11.0073 26.7264 11.0049 26.8738 10.9377 27.0246C10.8714 27.173 10.8103 27.285 10.7545 27.3602L10.389 27.19C10.425 27.1207 10.4562 27.0571 10.4818 26.9989C10.5339 26.8821 10.5499 26.789 10.531 26.7191C10.5121 26.6493 10.4439 26.5591 10.3274 26.4486L8.17188 26.5499Z" fill="#733D19"/>
<path d="M11.6436 23.2931L12.0428 22.9061C12.2591 23.1229 12.3841 23.3503 12.4177 23.5879C12.4513 23.8255 12.3983 24.0733 12.2591 24.3303C12.0868 24.6484 11.8392 24.8502 11.5158 24.9345C11.1925 25.0189 10.8468 24.9568 10.4785 24.7474C10.0889 24.5262 9.84221 24.2513 9.73806 23.923C9.6339 23.5947 9.67272 23.2625 9.85452 22.927C10.0131 22.6336 10.2266 22.4435 10.4951 22.3567C10.6542 22.3044 10.8421 22.3044 11.0589 22.3562L10.9112 22.8989C10.7744 22.8581 10.6466 22.863 10.5278 22.9129C10.4089 22.9629 10.3147 23.0526 10.2451 23.1811C10.149 23.3586 10.1334 23.5385 10.1978 23.7198C10.2626 23.9012 10.434 24.0709 10.7129 24.2295C11.0088 24.3973 11.2488 24.4627 11.4334 24.4249C11.6181 24.3871 11.7573 24.2814 11.852 24.1068C11.9216 23.9783 11.9414 23.8449 11.9116 23.7067C11.8827 23.5685 11.7932 23.4308 11.6436 23.2931Z" fill="#733D19"/>
<path d="M13.2651 22.5197L11.4068 21.2696L10.9708 21.9495L10.5925 21.6949L11.76 19.8745L12.1383 20.1291L11.7037 20.8075L13.5619 22.0576L13.2651 22.5197Z" fill="#733D19"/>
<path d="M15.499 19.3559L15.1425 19.8345L14.5175 19.6473L13.8689 20.5187L14.2183 21.0759L13.8708 21.5428L12.3748 19.0319L12.7213 18.5664L15.499 19.3559ZM14.054 19.5086L13.0409 19.1924L13.6114 20.1036L14.054 19.5086Z" fill="#733D19"/>
<path d="M15.658 19.1771L13.6738 17.3383L14.0365 16.9281L14.8172 17.6521L15.5273 16.8481L14.7466 16.1241L15.1093 15.7139L17.0935 17.5527L16.7308 17.9629L15.8635 17.1589L15.1533 17.9629L16.0207 18.7669L15.658 19.1771Z" fill="#733D19"/>
<path d="M16.4648 16.2653C16.2792 16.0607 16.1537 15.8604 16.0874 15.665C16.0391 15.5205 16.0169 15.3706 16.0207 15.216C16.024 15.0613 16.0538 14.9206 16.1102 14.7941C16.1845 14.6248 16.3014 14.4643 16.461 14.3126C16.7498 14.0381 17.0646 13.9101 17.4041 13.9285C17.744 13.9474 18.0621 14.12 18.3585 14.4474C18.6525 14.7718 18.796 15.1073 18.7898 15.454C18.7837 15.8008 18.6364 16.1111 18.3486 16.3851C18.0569 16.6625 17.7426 16.7914 17.405 16.773C17.0679 16.7546 16.7545 16.5854 16.4648 16.2653ZM16.8601 15.8638C17.066 16.0912 17.2739 16.2149 17.4827 16.2348C17.6914 16.2546 17.8751 16.1897 18.0328 16.0393C18.1904 15.8895 18.2676 15.7077 18.2633 15.4953C18.2591 15.2824 18.1511 15.0598 17.9405 14.8266C17.7317 14.5962 17.5272 14.4716 17.3259 14.4517C17.1247 14.4323 16.9425 14.4997 16.7791 14.6549C16.6158 14.8101 16.5362 14.9924 16.54 15.2019C16.5443 15.4123 16.6508 15.633 16.8601 15.8638Z" fill="#733D19"/>
<path d="M17.9111 13.0488L18.7557 12.3767C18.9229 12.2438 19.0531 12.1517 19.1459 12.1003C19.2387 12.0494 19.3348 12.0203 19.4342 12.014C19.5336 12.0077 19.633 12.0246 19.7334 12.0659C19.8338 12.1066 19.9195 12.174 19.9905 12.2676C20.0672 12.3689 20.1112 12.4834 20.1221 12.6104C20.133 12.7375 20.1088 12.8587 20.0496 12.9736C20.2073 12.9096 20.356 12.896 20.4956 12.9334C20.6348 12.9707 20.7522 13.0522 20.8469 13.1768C20.9217 13.2752 20.9719 13.3887 20.9979 13.5172C21.024 13.6457 21.0192 13.7689 20.9842 13.8858C20.9492 14.0031 20.8796 14.1132 20.7759 14.216C20.7106 14.2805 20.543 14.4221 20.2726 14.6403L19.5535 15.213L17.9111 13.0488ZM18.6113 13.0692L18.991 13.5696L19.2704 13.347C19.4365 13.2146 19.5379 13.1303 19.5748 13.0929C19.6411 13.026 19.6789 12.9542 19.6884 12.8781C19.6979 12.802 19.6761 12.7292 19.6231 12.6594C19.5724 12.5925 19.5132 12.5522 19.4451 12.5391C19.3774 12.526 19.3045 12.5435 19.2268 12.591C19.1809 12.6196 19.0573 12.7142 18.8566 12.8737L18.6113 13.0692ZM19.2642 13.9299L19.7031 14.5084L20.0979 14.1942C20.2518 14.072 20.346 13.9895 20.3806 13.9478C20.435 13.8858 20.4649 13.8154 20.4701 13.7383C20.4753 13.6608 20.4488 13.5837 20.3905 13.507C20.3413 13.4421 20.284 13.3994 20.2191 13.3785C20.1543 13.3577 20.0847 13.3601 20.0108 13.3858C19.937 13.4115 19.803 13.5017 19.6089 13.6559L19.2642 13.9299Z" fill="#733D19"/>
<path d="M23.5197 12.3159L23.0288 12.6471L22.4995 12.2587L21.6061 12.861L21.7557 13.5054L21.2771 13.8284L20.6763 10.9524L21.1535 10.6304L23.5197 12.3159ZM22.107 11.9707L21.2529 11.3287L21.4972 12.3819L22.107 11.9707Z" fill="#733D19"/>
<path d="M26.4368 10.7658L25.3318 8.26941L25.8237 8.04102L26.9287 10.5374L26.4368 10.7658Z" fill="#733D19"/>
<path d="M27.3618 10.3259L26.4021 7.7675L26.9063 7.56917L27.2841 8.57634L28.2722 8.18744L27.8944 7.18026L28.3986 6.98193L29.3582 9.54036L28.854 9.73869L28.4346 8.61998L27.4465 9.00889L27.866 10.1276L27.3618 10.3259Z" fill="#733D19"/>
<path d="M31.2084 7.91955L31.7576 7.93361C31.7614 8.24396 31.6937 8.49514 31.5535 8.68814C31.4134 8.88065 31.2055 9.01789 30.9295 9.09984C30.5882 9.20118 30.2738 9.16482 29.9869 8.99073C29.6995 8.81713 29.4974 8.52278 29.3804 8.10867C29.2569 7.6703 29.2711 7.2974 29.4235 6.98948C29.576 6.68155 29.8321 6.47449 30.1924 6.36781C30.5067 6.27471 30.7889 6.29411 31.0394 6.42649C31.188 6.50456 31.3215 6.63985 31.4394 6.83333L30.9612 7.11119C30.8921 6.98366 30.7984 6.89492 30.6796 6.84449C30.5607 6.79406 30.4324 6.78921 30.2946 6.82994C30.1043 6.88619 29.9694 7.00208 29.8903 7.17762C29.8113 7.35268 29.816 7.59756 29.9045 7.91082C29.9987 8.24347 30.1237 8.46363 30.2809 8.56982C30.4376 8.6765 30.6095 8.7022 30.7965 8.64644C30.9343 8.60571 31.0403 8.52569 31.1142 8.4064C31.188 8.28712 31.2197 8.12515 31.2084 7.91955Z" fill="#733D19"/>
<path d="M32.8898 8.54293L32.4349 6.31425L31.6575 6.48058L31.5647 6.02669L33.6459 5.58105L33.7387 6.03494L32.9632 6.20078L33.4182 8.42946L32.8898 8.54293Z" fill="#733D19"/>
<path d="M34.155 5.49367L34.6564 5.42723L34.8841 7.23694L35.7316 5.28515L36.2656 5.21436L36.6079 7.9328L36.1065 7.99923L35.8831 6.22492L35.0333 8.14131L34.4973 8.21211L34.155 5.49367Z" fill="#733D19"/>
<path d="M37.7106 7.86285L37.5965 5.58859L36.8035 5.63029L36.7803 5.1672L38.9041 5.05566L38.9273 5.51876L38.1362 5.56046L38.2503 7.83472L37.7106 7.86285Z" fill="#733D19"/>
<path d="M39.126 5.04834L39.7301 5.06046L40.3271 6.49533L40.8872 5.08374L41.451 5.09489L40.5079 7.15918C40.4052 7.38273 40.3015 7.55245 40.1969 7.66786C40.0923 7.78327 39.9592 7.84001 39.7973 7.83661C39.6378 7.83322 39.5132 7.82013 39.4238 7.79733L39.4318 7.38613C39.5085 7.39243 39.5776 7.39631 39.6397 7.39776C39.7651 7.40019 39.8551 7.37885 39.91 7.33327C39.9649 7.28769 40.0189 7.18828 40.0719 7.03456L39.126 5.04834Z" fill="#733D19"/>
<path d="M42.2235 7.91512L42.4261 5.64765L41.6355 5.57346L41.6767 5.11182L43.7944 5.31063L43.7532 5.77227L42.9644 5.69808L42.7618 7.96555L42.2235 7.91512Z" fill="#733D19"/>
<path d="M45.0152 6.88391C45.0705 6.61042 45.1572 6.38978 45.2751 6.22152C45.3622 6.09738 45.4687 5.99215 45.5937 5.90584C45.7187 5.81904 45.8479 5.76279 45.9814 5.7366C46.159 5.70072 46.3545 5.70556 46.5676 5.75115C46.9534 5.83358 47.2375 6.02222 47.4193 6.31656C47.6011 6.61139 47.6475 6.97702 47.5585 7.41393C47.4704 7.84696 47.2862 8.16167 47.0069 8.35709C46.7271 8.55251 46.3947 8.60925 46.0103 8.5273C45.6207 8.44438 45.3357 8.25623 45.1553 7.96382C44.9749 7.67045 44.928 7.31113 45.0152 6.88391ZM45.5639 6.98187C45.5018 7.28591 45.5236 7.53079 45.6287 7.71652C45.7338 7.90272 45.892 8.01813 46.1026 8.06323C46.3133 8.10833 46.5022 8.0676 46.6693 7.94055C46.836 7.81398 46.9515 7.5948 47.0145 7.28397C47.077 6.97653 47.058 6.7331 46.9572 6.55369C46.8563 6.37427 46.6968 6.26128 46.479 6.21473C46.2612 6.16818 46.0695 6.20745 45.9052 6.33208C45.7405 6.4567 45.6264 6.67297 45.5639 6.98187Z" fill="#733D19"/>
<path d="M47.2437 8.74267L48.5148 7.63512L48.0812 6.13818L48.6872 6.32051L48.9594 7.32041L49.7065 6.62746L50.3073 6.80834L49.1421 7.84461L49.6312 9.46132L49.0063 9.27317L48.6985 8.19229L47.8667 8.92937L47.2437 8.74267Z" fill="#733D19"/>
<path d="M50.1258 8.20332C50.2238 7.94292 50.344 7.73925 50.487 7.59232C50.5926 7.48467 50.7143 7.39836 50.8515 7.33338C50.9888 7.26888 51.1252 7.23445 51.2611 7.23058C51.4419 7.22476 51.6341 7.26161 51.8372 7.34211C52.2051 7.48758 52.4556 7.72083 52.5881 8.04184C52.7207 8.36286 52.7088 8.73139 52.5521 9.14794C52.3968 9.5606 52.1653 9.8404 51.8585 9.98684C51.5518 10.1333 51.2147 10.1343 50.8482 9.98927C50.4771 9.84234 50.2257 9.61006 50.0936 9.29147C49.962 8.97288 49.9724 8.61016 50.1258 8.20332ZM50.6518 8.39098C50.5429 8.68048 50.5254 8.92585 50.5997 9.1266C50.674 9.32784 50.8118 9.46798 51.0125 9.54702C51.2133 9.62655 51.4064 9.61734 51.5911 9.51987C51.7757 9.4224 51.9239 9.22552 52.0356 8.92924C52.1459 8.63635 52.1658 8.39292 52.0943 8.19895C52.0233 8.00499 51.8836 7.86727 51.6758 7.78532C51.468 7.70337 51.2729 7.71016 51.0911 7.80569C50.9093 7.9017 50.7625 8.09664 50.6518 8.39098Z" fill="#733D19"/>
<path d="M52.4033 10.5869L53.5746 8.12256L54.3544 8.51146C54.6498 8.65888 54.8363 8.76701 54.9144 8.83636C55.0347 8.94207 55.1119 9.08027 55.1459 9.25048C55.18 9.42068 55.1507 9.60398 55.0574 9.79989C54.9854 9.95118 54.8983 10.0651 54.7956 10.1413C54.6929 10.2174 54.5863 10.2644 54.476 10.2824C54.3652 10.2998 54.263 10.2969 54.1688 10.2737C54.0414 10.2392 53.8681 10.1675 53.648 10.0579L53.3313 9.89978L52.8895 10.8294L52.4033 10.5869ZM53.8625 8.78205L53.5301 9.4813L53.7962 9.61368C53.9874 9.70921 54.1219 9.76012 54.1986 9.76643C54.2753 9.77273 54.3454 9.7577 54.4079 9.72133C54.4708 9.68496 54.5191 9.63017 54.5541 9.55694C54.5968 9.46723 54.6062 9.38043 54.5826 9.29654C54.5589 9.21265 54.5111 9.14379 54.4391 9.08997C54.3865 9.04972 54.2725 8.9862 54.0978 8.89891L53.8625 8.78205Z" fill="#733D19"/>
<path d="M55.1303 10.4476C55.2695 10.2075 55.4215 10.0276 55.5862 9.90739C55.7084 9.81913 55.8419 9.75512 55.9877 9.71487C56.1335 9.67463 56.2736 9.66444 56.4081 9.68384C56.5875 9.70905 56.7708 9.7784 56.9582 9.89235C57.2972 10.0984 57.506 10.3715 57.5846 10.7104C57.6632 11.0494 57.5912 11.4111 57.3687 11.7947C57.1481 12.1749 56.8744 12.411 56.5478 12.5031C56.2211 12.5953 55.8892 12.5381 55.5512 12.3325C55.2089 12.1244 54.9992 11.8519 54.921 11.5154C54.8429 11.1788 54.913 10.8229 55.1303 10.4476ZM55.6184 10.723C55.4636 10.9897 55.4063 11.2288 55.447 11.4397C55.4873 11.6507 55.6004 11.8126 55.7855 11.9251C55.9706 12.0376 56.1624 12.0619 56.3603 11.9979C56.5582 11.9334 56.7367 11.7646 56.8953 11.4916C57.052 11.2215 57.1112 10.9849 57.0723 10.7817C57.034 10.5785 56.9189 10.4185 56.7272 10.3021C56.5359 10.1857 56.3423 10.1591 56.1472 10.2221C55.9522 10.2847 55.7756 10.4519 55.6184 10.723Z" fill="#733D19"/>
<path d="M56.99 13.1853L58.5528 10.9604L58.9912 11.2839L58.3762 12.1596L59.2355 12.793L59.8505 11.9172L60.2889 12.2406L58.7261 14.4654L58.2877 14.142L58.9708 13.1692L58.1116 12.5359L57.4284 13.5087L56.99 13.1853Z" fill="#733D19"/>
<path d="M60.869 12.7065L61.2535 13.0431L60.0955 14.4295L62.0773 13.7646L62.4863 14.123L60.7469 16.2057L60.3629 15.8692L61.4982 14.5095L59.5401 15.1486L59.1296 14.7888L60.869 12.7065Z" fill="#733D19"/>
<path d="M63.8047 15.4331L64.7369 16.417L64.4102 16.7327L63.8487 16.1518L62.2286 17.7166L61.8579 17.3141L63.8047 15.4331Z" fill="#733D19"/>
<path d="M63.2529 18.8454L65.3266 17.1128L65.8748 17.8009C66.0827 18.0618 66.2076 18.2402 66.2498 18.3367C66.3156 18.4846 66.3288 18.6427 66.29 18.8119C66.2512 18.9812 66.1494 19.1344 65.9842 19.2726C65.8568 19.3788 65.7309 19.4448 65.6064 19.47C65.4819 19.4952 65.3659 19.4918 65.2584 19.4603C65.1509 19.4288 65.0591 19.3822 64.9829 19.3201C64.8815 19.2343 64.7537 19.0942 64.5989 18.9002L64.3764 18.6204L63.5943 19.2741L63.2529 18.8454ZM65.3171 17.8348L64.7286 18.3265L64.9156 18.5612C65.0501 18.7305 65.1509 18.8342 65.2182 18.873C65.2854 18.9118 65.355 18.9283 65.4269 18.922C65.4989 18.9157 65.5657 18.8871 65.6267 18.8357C65.702 18.7727 65.7465 18.698 65.7593 18.6117C65.7721 18.5254 65.7569 18.4424 65.7139 18.3624C65.6826 18.3033 65.6054 18.1966 65.4823 18.0419L65.3171 17.8348Z" fill="#733D19"/>
<path d="M66.7891 18.9604L67.1356 19.4677L66.3554 20.807L67.7989 20.4385L68.1223 20.9118L65.9383 21.3477C65.7016 21.3942 65.5065 21.4083 65.3536 21.3904C65.2007 21.3719 65.0781 21.2948 64.9853 21.1591C64.8939 21.0252 64.8309 20.9147 64.7964 20.8269L65.1254 20.5912C65.1652 20.6586 65.2031 20.7183 65.2386 20.7702C65.3105 20.8754 65.3806 20.9375 65.4488 20.9559C65.5174 20.9743 65.6277 20.9602 65.7797 20.9137L66.7891 18.9604Z" fill="#733D19"/>
<path d="M66.0493 22.6788L68.3554 21.2886L68.6295 21.7657L67.722 22.3127L68.2588 23.2472L69.1664 22.7002L69.4405 23.1768L67.1344 24.5671L66.8603 24.0904L67.8687 23.4823L67.3319 22.5479L66.3234 23.1555L66.0493 22.6788Z" fill="#733D19"/>
<path d="M67.6323 25.5843L69.6307 24.5863L69.2827 23.8555L69.6894 23.6523L70.6211 25.61L70.2144 25.8131L69.8674 25.0838L67.869 26.0818L67.6323 25.5843Z" fill="#733D19"/>
<path d="M68.3213 27.0985L70.7846 26.0278L70.9957 26.537L68.5324 27.6077L68.3213 27.0985Z" fill="#733D19"/>
<path d="M71.2481 27.1357L71.6075 28.1676C71.6785 28.3718 71.7235 28.5275 71.7415 28.6337C71.7599 28.7403 71.7561 28.8427 71.731 28.9411C71.7059 29.0395 71.6586 29.1312 71.5895 29.216C71.5204 29.3009 71.4309 29.363 71.322 29.4027C71.2041 29.4459 71.0843 29.4527 70.9631 29.4236C70.8419 29.3945 70.7373 29.3329 70.6492 29.2393C70.6592 29.4129 70.6251 29.5618 70.547 29.6854C70.4689 29.8091 70.3567 29.8978 70.2113 29.9512C70.0967 29.9929 69.9755 30.0065 69.8487 29.9914C69.7213 29.9764 69.6086 29.9332 69.5111 29.8624C69.4136 29.7916 69.3331 29.6898 69.2701 29.5565C69.2308 29.473 69.1522 29.2655 69.0339 28.9338L68.728 28.0551L71.2481 27.1357ZM70.0077 28.1764L69.3336 28.4227L69.5016 28.9052C69.567 29.0929 69.6138 29.2102 69.6418 29.2568C69.6825 29.329 69.7379 29.3799 69.8084 29.4095C69.8785 29.4386 69.9585 29.4372 70.048 29.4047C70.1237 29.377 70.1815 29.3348 70.2208 29.2781C70.2605 29.2214 70.28 29.153 70.2795 29.073C70.279 28.993 70.2373 28.8349 70.1545 28.5978L70.0077 28.1764ZM71.01 27.8103L70.4272 28.0231L70.546 28.3645C70.6166 28.5677 70.6634 28.6928 70.6862 28.7398C70.7274 28.8252 70.7823 28.8844 70.8495 28.9173C70.9172 28.9503 70.9915 28.9518 71.073 28.9222C71.1511 28.8936 71.2065 28.8485 71.2401 28.7869C71.2732 28.7253 71.2803 28.6487 71.2604 28.558C71.2481 28.5042 71.1994 28.3548 71.1142 28.1095L71.01 27.8103Z" fill="#733D19"/>
<path d="M72.4115 30.7251L72.5497 31.3274L71.3401 32.2749L72.8139 32.4815L72.9427 33.044L70.7568 32.6187C70.5201 32.5721 70.3341 32.511 70.1987 32.4359C70.0633 32.3607 69.9771 32.2429 69.9402 32.0814C69.9037 31.9224 69.8852 31.7958 69.8848 31.7012L70.2758 31.6072C70.2886 31.6847 70.3019 31.7546 70.3161 31.8162C70.3445 31.9413 70.3876 32.0252 70.4444 32.0688C70.5012 32.112 70.6087 32.1411 70.7668 32.1556L72.4115 30.7251Z" fill="#733D19"/>
<path d="M73.0143 33.4766L73.0996 34.0231L71.9747 34.2068C72.0054 34.3266 72.049 34.4042 72.1053 34.4391C72.1612 34.474 72.3084 34.5182 72.5475 34.5715C72.851 34.6379 73.0465 34.7228 73.1341 34.8261C73.2212 34.9279 73.2847 35.1049 73.324 35.3576C73.3259 35.3697 73.3306 35.3963 73.3382 35.4366L72.9433 35.5011L72.9329 35.423C72.9154 35.311 72.8893 35.2315 72.8543 35.184C72.8193 35.1369 72.7715 35.1015 72.7113 35.0787C72.6512 35.0559 72.53 35.0268 72.3487 34.9924C72.2521 34.974 72.1702 34.9507 72.103 34.9221C72.0357 34.8935 71.9671 34.8343 71.898 34.7446C71.8833 34.8722 71.8312 34.9837 71.7413 35.0797C71.6513 35.1757 71.5206 35.2863 71.3493 35.4119L70.6822 35.8997L70.5823 35.2572L71.2153 34.8227C71.2243 34.8164 71.2408 34.8028 71.2664 34.782C71.2749 34.7742 71.3128 34.7446 71.38 34.6932C71.4989 34.6021 71.5708 34.5313 71.5964 34.4808C71.622 34.4304 71.6281 34.3591 71.6149 34.2665L70.4578 34.4556L70.3726 33.9091L73.0143 33.4766Z" fill="#733D19"/>
<path d="M70.708 36.162L73.3744 35.9326L73.4468 36.8176C73.4743 37.1532 73.479 37.3728 73.4606 37.4766C73.4336 37.6366 73.3569 37.7748 73.2319 37.8922C73.1064 38.009 72.9379 38.0769 72.7258 38.0953C72.562 38.1094 72.4218 38.091 72.3054 38.0396C72.1889 37.9882 72.0947 37.9184 72.0237 37.8301C71.9522 37.7418 71.9025 37.6502 71.8736 37.5551C71.8372 37.4257 71.8087 37.2361 71.7884 36.9863L71.759 36.627L70.753 36.7138L70.708 36.162ZM72.9687 36.5228L72.2121 36.5877L72.2367 36.8894C72.2547 37.1066 72.2803 37.2506 72.3144 37.3219C72.3485 37.3927 72.3968 37.4465 72.4597 37.4829C72.5227 37.5193 72.5932 37.5343 72.6723 37.5275C72.7694 37.5193 72.847 37.4829 72.9052 37.4194C72.9635 37.3554 72.9966 37.2783 73.0051 37.1876C73.0118 37.1207 73.007 36.9878 72.9909 36.789L72.9687 36.5228Z" fill="#733D19"/>
<path d="M70.9154 40.7959L70.9079 40.1941L71.5129 39.9468L71.4992 38.8514L70.8884 38.6331L70.8813 38.0464L73.57 39.0793L73.5771 39.6646L70.9154 40.7959ZM71.9617 39.7635L72.9498 39.3731L71.9523 39.0157L71.9617 39.7635Z" fill="#733D19"/>
<path d="M70.883 41.0365L73.5565 41.1562L73.5329 41.709L70.8594 41.5893L70.883 41.0365ZM73.6905 41.6038L74.1299 41.6237L74.1105 42.0756L73.6711 42.0557L73.6905 41.6038ZM73.7251 40.8008L74.1644 40.8202L74.145 41.2702L73.7057 41.2503L73.7251 40.8008Z" fill="#733D19"/>
<path d="M70.8487 42.0732L73.5108 42.3516L73.4559 42.902L72.4082 42.7924L72.3007 43.8713L73.3484 43.9809L73.2935 44.5313L70.6313 44.2529L70.6863 43.7026L71.8504 43.8243L71.9579 42.7453L70.7942 42.6236L70.8487 42.0732Z" fill="#733D19"/>
<path d="M73.1869 45.2802L73.0932 45.7889L71.3424 45.4509L72.892 46.8804L72.7921 47.4225L70.1626 46.9148L70.2563 46.4062L71.973 46.7378L70.4571 45.317L70.557 44.7734L73.1869 45.2802Z" fill="#733D19"/>
<path d="M24.4161 8.85399L24.6488 8.70997C24.7162 8.66827 24.8044 8.69591 24.8364 8.76816L25.1171 9.40631C25.1433 9.46596 25.1215 9.5353 25.0662 9.56925L24.9523 9.63907C24.8941 9.67496 24.8175 9.65944 24.7782 9.60367L24.3787 9.03923C24.3351 8.97813 24.3521 8.89327 24.4161 8.85399Z" fill="#733D19"/>
<path d="M25.1379 8.46575L25.3779 8.33434C25.4472 8.29651 25.534 8.32852 25.5621 8.40222L25.8089 9.05444C25.8317 9.11505 25.8065 9.18343 25.7493 9.21446L25.6319 9.27847C25.5718 9.31144 25.4962 9.29156 25.4598 9.23386L25.0909 8.64905C25.0502 8.58601 25.072 8.50212 25.1379 8.46575Z" fill="#733D19"/>
<path d="M74.2474 48.3261L74.2086 48.5967C74.1974 48.6748 74.1194 48.7252 74.0437 48.7029L73.3742 48.5085C73.3117 48.4905 73.2724 48.4289 73.2816 48.3649L73.301 48.2325C73.3107 48.1647 73.3718 48.1162 73.4401 48.1215L74.1291 48.1773C74.2037 48.184 74.258 48.2519 74.2474 48.3261Z" fill="#733D19"/>
<path d="M74.0815 49.1289L74.0287 49.397C74.0132 49.4746 73.9332 49.5207 73.8585 49.4945L73.2001 49.2651C73.139 49.2438 73.1027 49.1803 73.1153 49.1168L73.1415 48.9858C73.155 48.9184 73.2185 48.8733 73.2864 48.8825L73.9715 48.9747C74.0456 48.9844 74.0961 49.0552 74.0815 49.1289Z" fill="#733D19"/>
</g>
<defs>
<clipPath id="clip0_624_1165">
<rect width="80" height="80" fill="white"/>
</clipPath>
</defs>
</svg>
