<svg width="512" height="512" viewBox="0 0 512 512" fill="none" xmlns="http://www.w3.org/2000/svg">
<g clip-path="url(#clip0_865_122)">
<ellipse cx="258.586" cy="253.361" rx="253.309" ry="248.082" fill="white"/>
<path d="M489.32 337.513L487.399 340.716C487.399 340.716 340.946 353.955 231.428 416.946C231.301 417.021 230.91 417.222 230.296 417.536C228.31 414.647 226.303 411.86 224.276 409.166C224.658 408.933 225.043 408.697 225.431 408.461C362.296 337.513 489.32 337.513 489.32 337.513Z" fill="#733D19"/>
<path d="M487.704 343.611L485.783 346.814C485.783 346.814 377.59 358.418 271.495 416.415C262.671 416.673 254.417 417.023 247.026 417.48C367.059 352.142 487.704 343.611 487.704 343.611Z" fill="#733D19"/>
<path d="M485.346 350.348L484.021 353.923C484.021 353.923 392.072 368.025 314.904 415.769C314.873 415.788 314.821 415.816 314.749 415.85C305.41 415.847 296.173 415.912 287.286 416.058C287.413 415.98 287.544 415.899 287.671 415.822C393.809 360.546 485.346 350.348 485.346 350.348Z" fill="#733D19"/>
<path d="M479.971 358.966L478.541 363.401C478.541 363.401 410.012 375.626 351.89 415.288C351.735 415.375 351.123 415.689 350.13 416.179C341.855 416.03 333.394 415.928 324.938 415.881C325.094 415.788 325.249 415.692 325.404 415.599C412.966 366.005 479.971 358.966 479.971 358.966Z" fill="#733D19"/>
<path d="M475.23 368.581L471.6 376.483C471.6 376.483 418.656 388.149 386.312 417.16C386.306 417.163 386.3 417.166 386.294 417.169C378.475 416.874 370.116 416.617 361.446 416.415C361.62 416.306 361.797 416.201 361.974 416.092C408.411 382.032 475.23 368.581 475.23 368.581Z" fill="#733D19"/>
<path d="M468.454 382.599L464.823 390.501C464.823 390.501 436.46 397.521 416.832 418.736C410.645 418.302 403.412 417.901 395.432 417.544C395.525 417.488 395.618 417.433 395.711 417.377C432.749 388.651 468.454 382.599 468.454 382.599Z" fill="#733D19"/>
<path d="M442.248 421.216L437.37 421.511C437.299 421.2 437.246 421.033 437.206 421.023C434.72 420.418 430.14 419.835 423.95 419.292C428.213 415.35 442.998 402.626 460.498 398.244C481.315 393.03 442.248 421.216 442.248 421.216Z" fill="#733D19"/>
<path d="M435.951 424.419L433.817 426.235C433.817 426.235 330.917 414.969 236.129 425.381C236.083 425.387 235.872 425.4 235.515 425.422C234.696 424.13 233.873 422.858 233.045 421.604C233.271 421.583 233.498 421.558 233.728 421.536C330.114 411.928 435.951 424.419 435.951 424.419Z" fill="#733D19"/>
<path d="M435.151 428.097L433.016 429.912C433.016 429.912 340.31 421.753 242.214 435.312C242.164 435.318 241.925 435.331 241.522 435.349C240.284 433.202 239.033 431.101 237.773 429.046C237.972 429.028 238.171 429.009 238.372 428.987C334.759 419.373 435.151 428.097 435.151 428.097Z" fill="#733D19"/>
<path d="M428.212 431.305L426.078 433.76C426.078 433.76 347.263 428.941 247.777 446.776C246.523 444.359 245.254 441.997 243.973 439.685C342.019 425.623 428.212 431.305 428.212 431.305Z" fill="#733D19"/>
<path d="M423.41 435.628L421.7 439.461C421.7 439.461 354.862 436.429 255.237 459.221C255.165 459.236 254.718 459.286 253.958 459.36C252.618 456.471 251.259 453.647 249.878 450.891C250.061 450.854 250.247 450.819 250.433 450.785C354.133 431.463 423.41 435.628 423.41 435.628Z" fill="#733D19"/>
<path d="M419.979 441.661L418.126 445.665C418.126 445.665 351.251 446.841 262.175 475.132C262.107 475.154 261.651 475.219 260.881 475.315C259.392 471.638 257.871 468.056 256.326 464.568C358.326 440.438 419.979 441.661 419.979 441.661Z" fill="#733D19"/>
<path d="M415.082 449.082L400.672 455.86C400.672 455.86 347.087 462.693 267.725 491.041C267.673 491.059 267.387 491.127 266.906 491.233C265.659 487.714 264.39 484.275 263.09 480.914C263.105 480.908 263.121 480.905 263.136 480.898C364.059 447.319 415.082 449.082 415.082 449.082Z" fill="#733D19"/>
<path d="M393.254 462.532L382.856 470.859C382.856 470.859 350.028 480.473 273.869 507.573C272.762 503.973 271.043 500.1 269.876 496.652C365.595 462.566 393.254 462.532 393.254 462.532Z" fill="#733D19"/>
<path d="M64.2725 448.455C64.2725 448.455 86.7028 481.839 136.857 497.664C184.892 512.818 236.982 503.209 236.982 503.209C236.982 503.209 190.266 472.622 145.505 460.003C103.179 448.073 64.2725 448.455 64.2725 448.455Z" fill="#68BE00"/>
<path d="M172.801 459.355C169.931 457.766 140.972 442.847 55.6788 437.392C35.6655 413.849 18.0508 366.608 18.0508 366.608C18.0508 366.608 68.0063 356.357 100.35 361.965C122.368 416.946 169.261 456.375 172.826 459.318C172.851 459.333 172.826 459.367 172.801 459.355Z" fill="#68BE00"/>
<path d="M250.858 498.729C250.858 498.729 198.768 472.747 161.621 435.877C124.474 399.008 111.665 363.349 111.665 363.349C111.665 363.349 157.851 367.474 199.835 413.048C236.982 453.375 250.858 498.729 250.858 498.729Z" fill="#68BE00"/>
<path d="M274.359 508.657L271.268 500.436C401.277 493.403 503.968 385.762 503.968 255.41C503.968 120.115 393.92 10.0439 258.652 10.0439C123.384 10.0439 13.3393 120.118 13.3393 255.414C13.3393 285.011 18.549 313.945 28.8286 341.411L21.0033 344.34C10.3699 315.931 4.9834 286.014 4.9834 255.414C4.9834 221.164 11.6917 187.935 24.9191 156.652C31.2768 141.616 39.1456 127.116 48.3082 113.551C57.3809 100.116 67.8033 87.4848 79.2807 76.002C90.758 64.5222 103.39 54.0977 116.822 45.0231C130.384 35.8586 144.881 27.9882 159.914 21.6292C191.19 8.39909 224.412 1.68939 258.655 1.68939C292.898 1.68939 326.12 8.39909 357.397 21.6292C372.43 27.9882 386.926 35.8586 400.489 45.0231C413.921 54.0977 426.549 64.5222 438.03 76.002C449.51 87.4817 459.93 100.116 469.002 113.551C478.165 127.116 486.034 141.616 492.391 156.652C505.619 187.935 512.327 221.164 512.327 255.414C512.327 288.524 506.044 320.729 493.654 351.128C487.694 365.754 480.306 379.906 471.699 393.195C463.178 406.351 453.373 418.79 442.56 430.17C431.759 441.535 419.85 451.953 407.16 461.133C394.37 470.385 380.662 478.472 366.413 485.17C336.875 499.051 307.09 506.885 274.359 508.657Z" fill="#37A63D"/>
<path d="M330.927 125.515C330.213 125.924 313.334 135.747 305.685 154.709C305.158 156.022 303.752 159.504 298.363 197.118C295.644 216.077 293.184 234.869 292.719 238.441C292.436 240.594 293.733 242.64 295.803 243.301C296.696 243.586 299.827 244.728 302.675 247.438C306.172 250.764 307.978 255.237 308.046 260.73C308.109 265.854 306.408 270.174 302.986 273.572C299.126 277.411 293.175 279.76 287.375 279.76C287.245 279.76 287.112 279.76 286.981 279.757C285.864 279.735 284.76 279.754 283.668 279.807C283.081 278.581 282.476 277.339 281.859 276.073C274.781 261.555 265.438 242.388 259.627 197.084C259.621 196.997 259.614 196.91 259.605 196.823C260.48 189.856 261.243 182.51 261.901 174.76C265.094 137.168 265.141 127.768 260.781 113.901C260.564 113.141 260.337 112.393 260.092 111.651C260.027 111.456 259.946 111.27 259.86 111.087C259.704 110.627 259.543 110.162 259.379 109.687C258.836 108.123 257.359 107.058 255.702 107.043C254.045 107.024 252.546 108.055 251.972 109.603C247.951 120.378 247.113 133.332 247.631 147.481C247.861 154.312 248.444 162.986 249.443 174.76C250.101 182.513 250.864 189.856 251.739 196.823C251.733 196.91 251.727 196.997 251.718 197.084C245.909 242.388 236.567 261.555 229.486 276.073C228.868 277.339 228.263 278.581 227.677 279.807C226.585 279.754 225.477 279.735 224.363 279.757C218.434 279.869 212.306 277.498 208.356 273.572C204.936 270.174 203.233 265.85 203.295 260.73C203.462 247.13 214.509 243.589 215.765 243.232C217.708 242.68 218.927 240.824 218.669 238.819C218.4 236.737 215.942 217.899 213.177 198.53C207.62 159.594 206.19 156.047 205.653 154.712C198.005 135.75 181.128 125.927 180.412 125.518L174.594 122.182V315.633C174.594 318.423 176.865 320.695 179.654 320.695H220.274C223.867 346.966 248.013 363.147 253.012 366.235C253.713 366.667 254.507 366.887 255.301 366.887C255.621 366.887 255.944 366.85 256.257 366.778C257.058 366.763 257.852 366.536 258.553 366.099C261.476 364.271 269.053 359.147 276.236 351.044C284.642 341.563 289.622 331.371 291.074 320.695H332.261C334.737 320.695 336.754 318.681 336.754 316.201V122.182L330.927 125.515ZM198.439 157.62C198.926 158.824 200.583 165.329 205.476 199.625C207.704 215.245 209.733 230.517 210.571 236.895C208.722 237.739 206.345 239.086 204.009 241.147C199.478 245.144 196.686 250.467 195.811 256.695L182.379 256.317V136.464C187.396 140.588 194.443 147.711 198.439 157.62ZM219.752 312.905H182.379V264.106L195.727 264.485C196.431 270.115 198.861 275.111 202.87 279.096C208.219 284.412 216.066 287.55 223.96 287.55C224.053 287.55 224.149 287.55 224.242 287.55C221.415 294.685 219.582 302.273 219.752 312.905ZM236.489 279.487C240.579 271.098 245.67 260.655 250.328 244.474C252.329 237.522 254.107 230.015 255.674 221.89C257.241 230.015 259.022 237.522 261.02 244.474C265.674 260.658 270.766 271.098 274.859 279.487C275.098 279.974 275.33 280.458 275.563 280.933C269.019 282.466 263.27 285.446 259.016 289.623C257.74 290.877 256.623 292.211 255.674 293.614C254.724 292.211 253.607 290.877 252.332 289.623C248.078 285.446 242.329 282.466 235.785 280.933C236.017 280.458 236.25 279.974 236.489 279.487ZM232.409 288.174C238.239 289.254 243.303 291.668 246.877 295.181C249.664 297.919 251.327 301.18 251.758 304.7C251.708 305.311 251.684 305.929 251.684 306.552V312.908H227.537C227.339 302.4 229.256 295.464 232.409 288.174ZM228.145 320.695H251.687V355.851C243.802 349.84 230.913 337.659 228.145 320.695ZM259.661 355.836V320.692H283.199C280.425 337.631 267.474 349.855 259.661 355.836ZM283.807 312.905H259.661V306.549C259.661 305.926 259.636 305.311 259.586 304.697C260.018 301.174 261.681 297.916 264.467 295.178C268.045 291.665 273.106 289.251 278.936 288.171C282.091 295.464 284.006 302.4 283.807 312.905ZM300.773 236.904C305.574 200.274 311.196 161.866 312.909 157.623C316.883 147.763 323.942 140.625 328.966 136.482V256.313L315.543 256.683C313.877 244.548 305.434 239.049 300.773 236.904ZM291.592 312.905C291.763 302.273 289.929 294.685 287.099 287.547C287.192 287.547 287.289 287.547 287.382 287.547C295.275 287.547 303.122 284.409 308.472 279.093C312.484 275.105 314.913 270.105 315.617 264.473L328.966 264.103V312.905H291.592Z" fill="#0099E6"/>
<path d="M204.11 233.614C203.08 234.269 202.016 235.026 200.945 235.898C197.328 238.859 193.204 243.561 191.038 250.574L188.36 250.5V151.58C190.061 154.01 191.618 156.738 192.844 159.751C194.495 164.829 199.67 199.982 204.11 233.614Z" fill="#FFF500"/>
<path d="M216.193 292.685C215.017 296.928 214.191 301.564 213.887 306.921H188.36V270.263L190.846 270.334C192.292 275.232 194.923 279.632 198.652 283.341C203.319 287.974 209.537 291.236 216.193 292.685Z" fill="#FFF500"/>
<path d="M242.686 299.448C240.955 297.75 238.674 296.369 236.03 295.37C234.823 298.927 234.007 302.589 233.675 306.921H245.702V306.549C245.702 306.003 245.717 305.459 245.748 304.916C245.392 302.93 244.365 301.096 242.686 299.448ZM235.937 326.678C238.215 332.717 241.885 337.947 245.702 342.195V326.678H235.937ZM235.937 326.678C238.215 332.717 241.885 337.947 245.702 342.195C245.767 342.267 245.829 342.338 245.894 342.409V326.678H235.937ZM245.748 304.916C245.389 302.93 244.365 301.096 242.686 299.448C240.955 297.75 238.674 296.369 236.03 295.37C234.823 298.927 234.007 302.589 233.675 306.921H245.894V306.549C245.894 305.996 245.848 305.45 245.748 304.916ZM255.674 247.502C251.836 260.524 247.756 269.819 244.166 277.351C248.513 279.139 252.413 281.56 255.674 284.548C258.932 281.563 262.836 279.139 267.18 277.351C263.59 269.822 259.513 260.524 255.674 247.502ZM265.455 326.678V342.496C265.52 342.425 265.585 342.354 265.647 342.282C269.488 338.024 273.165 332.77 275.439 326.678H265.455ZM275.318 295.37C272.672 296.372 270.391 297.75 268.663 299.448C266.984 301.096 265.957 302.927 265.6 304.916C265.504 305.45 265.455 305.996 265.455 306.549V306.921H277.673C277.341 302.589 276.525 298.93 275.318 295.37ZM320.502 270.325C319.056 275.225 316.425 279.629 312.692 283.338C308.028 287.971 301.81 291.233 295.152 292.686C296.328 296.928 297.156 301.565 297.457 306.921H322.984V270.254L320.502 270.325ZM318.501 159.748C317.225 163.69 312.915 190.616 307.24 233.608C308.838 234.623 310.517 235.886 312.158 237.447C315.99 241.087 318.727 245.528 320.288 250.565L322.984 250.491V151.577C321.287 154.01 319.726 156.738 318.501 159.748ZM320.502 270.325C319.056 275.225 316.425 279.629 312.692 283.338C308.028 287.971 301.81 291.233 295.152 292.686C296.328 296.928 297.156 301.565 297.457 306.921H322.984V270.254L320.502 270.325ZM318.501 159.748C317.225 163.69 312.915 190.616 307.24 233.608C308.838 234.623 310.517 235.886 312.158 237.447C315.99 241.087 318.727 245.528 320.288 250.565L322.984 250.491V151.577C321.287 154.01 319.726 156.738 318.501 159.748ZM275.318 295.37C272.672 296.372 270.391 297.75 268.663 299.448C266.984 301.096 265.957 302.927 265.6 304.916C265.504 305.45 265.455 305.996 265.455 306.549V306.921H277.673C277.341 302.589 276.525 298.93 275.318 295.37ZM265.455 326.678V342.496C265.52 342.425 265.585 342.354 265.647 342.282C269.488 338.024 273.165 332.77 275.439 326.678H265.455ZM255.674 247.502C251.836 260.524 247.756 269.819 244.166 277.351C248.513 279.139 252.413 281.56 255.674 284.548C258.932 281.563 262.836 279.139 267.18 277.351C263.59 269.822 259.513 260.524 255.674 247.502ZM245.748 304.916C245.389 302.93 244.365 301.096 242.686 299.448C240.955 297.75 238.674 296.369 236.03 295.37C234.823 298.927 234.007 302.589 233.675 306.921H245.894V306.549C245.894 305.996 245.848 305.45 245.748 304.916ZM235.937 326.678C238.215 332.717 241.885 337.947 245.702 342.195C245.767 342.267 245.829 342.338 245.894 342.409V326.678H235.937ZM235.937 326.678C238.215 332.717 241.885 337.947 245.702 342.195C245.767 342.267 245.829 342.338 245.894 342.409V326.678H235.937ZM245.748 304.916C245.389 302.93 244.365 301.096 242.686 299.448C240.955 297.75 238.674 296.369 236.03 295.37C234.823 298.927 234.007 302.589 233.675 306.921H245.894V306.549C245.894 305.996 245.848 305.45 245.748 304.916ZM255.674 247.502C251.836 260.524 247.756 269.819 244.166 277.351C248.513 279.139 252.413 281.56 255.674 284.548C258.932 281.563 262.836 279.139 267.18 277.351C263.59 269.822 259.513 260.524 255.674 247.502ZM265.455 326.678V342.496C265.52 342.425 265.585 342.354 265.647 342.282C269.488 338.024 273.165 332.77 275.439 326.678H265.455ZM275.318 295.37C272.672 296.372 270.391 297.75 268.663 299.448C266.984 301.096 265.957 302.927 265.6 304.916C265.504 305.45 265.455 305.996 265.455 306.549V306.921H277.673C277.341 302.589 276.525 298.93 275.318 295.37ZM318.501 159.748C317.225 163.69 312.915 190.616 307.24 233.608C308.838 234.623 310.517 235.886 312.158 237.447C315.99 241.087 318.727 245.528 320.288 250.565L322.984 250.491V151.577C321.287 154.01 319.726 156.738 318.501 159.748ZM320.502 270.325C319.056 275.225 316.425 279.629 312.692 283.338C308.028 287.971 301.81 291.233 295.152 292.686C296.328 296.928 297.156 301.565 297.457 306.921H322.984V270.254L320.502 270.325ZM320.502 270.325C319.056 275.225 316.425 279.629 312.692 283.338C308.028 287.971 301.81 291.233 295.152 292.686C296.328 296.928 297.156 301.565 297.457 306.921H322.984V270.254L320.502 270.325ZM318.501 159.748C317.225 163.69 312.915 190.616 307.24 233.608C308.838 234.623 310.517 235.886 312.158 237.447C315.99 241.087 318.727 245.528 320.288 250.565L322.984 250.491V151.577C321.287 154.01 319.726 156.738 318.501 159.748ZM275.318 295.37C272.672 296.372 270.391 297.75 268.663 299.448C266.984 301.096 265.957 302.927 265.6 304.916C265.504 305.45 265.455 305.996 265.455 306.549V306.921H277.673C277.341 302.589 276.525 298.93 275.318 295.37ZM265.455 326.678V342.496C265.52 342.425 265.585 342.354 265.647 342.282C269.488 338.024 273.165 332.77 275.439 326.678H265.455ZM255.674 247.502C251.836 260.524 247.756 269.819 244.166 277.351C248.513 279.139 252.413 281.56 255.674 284.548C258.932 281.563 262.836 279.139 267.18 277.351C263.59 269.822 259.513 260.524 255.674 247.502ZM245.748 304.916C245.389 302.93 244.365 301.096 242.686 299.448C240.955 297.75 238.674 296.369 236.03 295.37C234.823 298.927 234.007 302.589 233.675 306.921H245.894V306.549C245.894 305.996 245.848 305.45 245.748 304.916ZM235.937 326.678C238.215 332.717 241.885 337.947 245.702 342.195C245.767 342.267 245.829 342.338 245.894 342.409V326.678H235.937ZM235.937 326.678C238.215 332.717 241.885 337.947 245.702 342.195C245.767 342.267 245.829 342.338 245.894 342.409V326.678H235.937ZM245.748 304.916C245.389 302.93 244.365 301.096 242.686 299.448C240.955 297.75 238.674 296.369 236.03 295.37C234.823 298.927 234.007 302.589 233.675 306.921H245.894V306.549C245.894 305.996 245.848 305.45 245.748 304.916ZM255.674 247.502C251.836 260.524 247.756 269.819 244.166 277.351C248.513 279.139 252.413 281.56 255.674 284.548C258.932 281.563 262.836 279.139 267.18 277.351C263.59 269.822 259.513 260.524 255.674 247.502ZM265.455 326.678V342.496C265.52 342.425 265.585 342.354 265.647 342.282C269.488 338.024 273.165 332.77 275.439 326.678H265.455ZM275.318 295.37C272.672 296.372 270.391 297.75 268.663 299.448C266.984 301.096 265.957 302.927 265.6 304.916C265.504 305.45 265.455 305.996 265.455 306.549V306.921H277.673C277.341 302.589 276.525 298.93 275.318 295.37ZM318.501 159.748C317.225 163.69 312.915 190.616 307.24 233.608C308.838 234.623 310.517 235.886 312.158 237.447C315.99 241.087 318.727 245.528 320.288 250.565L322.984 250.491V151.577C321.287 154.01 319.726 156.738 318.501 159.748ZM320.502 270.325C319.056 275.225 316.425 279.629 312.692 283.338C308.028 287.971 301.81 291.233 295.152 292.686C296.328 296.928 297.156 301.565 297.457 306.921H322.984V270.254L320.502 270.325ZM312.692 283.338C308.028 287.971 301.81 291.233 295.152 292.686C296.328 296.928 297.156 301.565 297.457 306.921H322.984V270.254L320.502 270.325C319.056 275.225 316.425 279.629 312.692 283.338ZM318.501 159.748C317.225 163.69 312.915 190.616 307.24 233.608C308.838 234.623 310.517 235.886 312.158 237.447C315.99 241.087 318.727 245.528 320.288 250.565L322.984 250.491V151.577C321.287 154.01 319.726 156.738 318.501 159.748ZM268.663 299.448C266.984 301.096 265.957 302.927 265.6 304.916C265.504 305.45 265.455 305.996 265.455 306.549V306.921H277.673C277.341 302.589 276.525 298.927 275.318 295.37C272.672 296.372 270.391 297.75 268.663 299.448ZM265.455 326.678V342.496C265.52 342.425 265.585 342.354 265.647 342.282C269.488 338.024 273.165 332.77 275.439 326.678H265.455ZM255.674 247.502C251.836 260.524 247.756 269.819 244.166 277.351C248.513 279.139 252.413 281.56 255.674 284.548C258.932 281.563 262.836 279.139 267.18 277.351C263.59 269.822 259.513 260.524 255.674 247.502ZM242.686 299.448C240.955 297.75 238.674 296.369 236.03 295.37C234.823 298.927 234.007 302.589 233.675 306.921H245.894V306.549C245.894 305.993 245.848 305.45 245.748 304.916C245.392 302.93 244.365 301.096 242.686 299.448ZM235.937 326.678C238.215 332.717 241.885 337.947 245.702 342.195C245.767 342.267 245.829 342.338 245.894 342.409V326.678H235.937ZM258.653 70.0954C158.215 70.0954 76.79 151.537 76.79 251.993C76.79 274.425 80.8485 295.907 88.2736 315.744C90.7931 322.476 93.6974 329.018 96.9646 335.343C115.383 335.957 172.789 343.148 221.689 405.776C295.906 367.436 367.159 349.932 416.758 341.941C431.878 315.412 440.516 284.71 440.516 251.99C440.516 151.534 359.092 70.0954 258.653 70.0954ZM338.058 326.678H296.036C295.049 330.846 293.572 334.952 291.611 338.961C288.89 344.526 285.226 349.929 280.714 355.013C273.013 363.702 264.868 369.208 261.725 371.175C260.267 372.088 258.631 372.609 256.971 372.736C256.419 372.826 255.861 372.87 255.305 372.87C253.419 372.87 251.532 372.355 249.869 371.327C246.766 369.413 238.714 364.025 230.967 355.391C226.377 350.277 222.642 344.839 219.865 339.231C217.838 335.138 216.318 330.942 215.31 326.681H173.288C170.703 326.681 168.612 324.586 168.612 322.004V119.084C168.612 115.868 172.084 113.854 174.877 115.449L183.394 120.319C184.182 120.769 202.796 131.603 211.211 152.468C212.005 154.441 213.488 158.116 219.319 199.135C222.127 218.882 224.606 237.987 224.631 238.176L225 241.019C225.453 244.51 223.151 247.766 219.706 248.501L217.342 249.007C216.914 249.15 214.906 249.87 213.042 251.549C210.565 253.774 209.34 256.8 209.29 260.801C209.247 264.289 210.327 267.079 212.585 269.326C215.238 271.964 219.502 273.671 223.604 273.77C223.771 273.668 223.951 273.556 224.122 273.45C230.985 259.373 240.033 240.82 245.727 196.857C244.88 190.02 244.138 182.829 243.496 175.26C242.245 160.499 241.634 150.68 241.541 143.17V143.086C241.538 142.9 241.538 142.717 241.535 142.53C241.377 129.691 242.528 117.814 246.375 107.508C247.837 103.597 251.616 101.006 255.789 101.056C259.959 101.108 263.68 103.79 265.045 107.731C265.175 108.107 265.303 108.479 265.43 108.845C265.563 109.149 265.684 109.46 265.79 109.779C266.044 110.555 266.286 111.34 266.513 112.132C268.585 118.721 269.786 124.561 270.099 132.637C270.469 142.096 269.603 154.913 267.875 175.256C267.232 182.826 266.488 190.017 265.641 196.854C271.334 240.814 280.382 259.367 287.246 273.444C287.413 273.546 287.593 273.658 287.764 273.764C291.863 273.664 296.126 271.957 298.782 269.32C301.041 267.073 302.121 264.283 302.077 260.794C302.031 256.918 300.88 253.967 298.565 251.763C296.548 249.845 294.249 249.072 293.994 248.992C289.176 247.449 286.15 242.689 286.802 237.667C287.271 234.08 289.737 215.242 292.455 196.267C297.95 157.93 299.384 154.373 300.153 152.465C308.568 131.597 327.182 120.766 327.97 120.316L336.488 115.446C339.277 113.851 342.752 115.865 342.752 119.081V321.998C342.737 324.583 340.642 326.678 338.058 326.678ZM312.692 283.338C308.028 287.971 301.81 291.233 295.152 292.686C296.328 296.928 297.156 301.565 297.457 306.921H322.984V270.254L320.502 270.325C319.056 275.225 316.425 279.629 312.692 283.338ZM307.24 233.611C308.838 234.626 310.517 235.889 312.158 237.45C315.99 241.09 318.727 245.531 320.288 250.568L322.984 250.494V151.577C321.284 154.01 319.726 156.738 318.501 159.748C317.228 163.69 312.919 190.616 307.24 233.611ZM268.663 299.448C266.984 301.096 265.957 302.927 265.6 304.916C265.504 305.45 265.455 305.996 265.455 306.549V306.921H277.673C277.341 302.589 276.525 298.927 275.318 295.37C272.672 296.372 270.391 297.75 268.663 299.448ZM265.455 326.678V342.496C265.52 342.425 265.585 342.354 265.647 342.282C269.488 338.024 273.165 332.77 275.439 326.678H265.455ZM255.674 247.502C251.836 260.524 247.756 269.819 244.166 277.351C248.513 279.139 252.413 281.56 255.674 284.548C258.932 281.563 262.836 279.139 267.18 277.351C263.59 269.822 259.513 260.524 255.674 247.502ZM242.686 299.448C240.955 297.75 238.674 296.369 236.03 295.37C234.823 298.927 234.007 302.589 233.675 306.921H245.894V306.549C245.894 305.993 245.848 305.45 245.748 304.916C245.392 302.93 244.365 301.096 242.686 299.448ZM235.937 326.678C238.215 332.717 241.885 337.947 245.702 342.195C245.767 342.267 245.829 342.338 245.894 342.409V326.678H235.937ZM235.937 326.678C238.215 332.717 241.885 337.947 245.702 342.195C245.767 342.267 245.829 342.338 245.894 342.409V326.678H235.937ZM245.748 304.916C245.389 302.93 244.365 301.096 242.686 299.448C240.955 297.75 238.674 296.369 236.03 295.37C234.823 298.927 234.007 302.589 233.675 306.921H245.894V306.549C245.894 305.996 245.848 305.45 245.748 304.916ZM255.674 247.502C251.836 260.524 247.756 269.819 244.166 277.351C248.513 279.139 252.413 281.56 255.674 284.548C258.932 281.563 262.836 279.139 267.18 277.351C263.59 269.822 259.513 260.524 255.674 247.502ZM265.455 326.678V342.496C265.52 342.425 265.585 342.354 265.647 342.282C269.488 338.024 273.165 332.77 275.439 326.678H265.455ZM275.318 295.37C272.672 296.372 270.391 297.75 268.663 299.448C266.984 301.096 265.957 302.927 265.6 304.916C265.504 305.45 265.455 305.996 265.455 306.549V306.921H277.673C277.341 302.589 276.525 298.93 275.318 295.37ZM318.501 159.748C317.225 163.69 312.915 190.616 307.24 233.608C308.838 234.623 310.517 235.886 312.158 237.447C315.99 241.087 318.727 245.528 320.288 250.565L322.984 250.491V151.577C321.287 154.01 319.726 156.738 318.501 159.748ZM320.502 270.325C319.056 275.225 316.425 279.629 312.692 283.338C308.028 287.971 301.81 291.233 295.152 292.686C296.328 296.928 297.156 301.565 297.457 306.921H322.984V270.254L320.502 270.325ZM320.502 270.325C319.056 275.225 316.425 279.629 312.692 283.338C308.028 287.971 301.81 291.233 295.152 292.686C296.328 296.928 297.156 301.565 297.457 306.921H322.984V270.254L320.502 270.325ZM318.501 159.748C317.225 163.69 312.915 190.616 307.24 233.608C308.838 234.623 310.517 235.886 312.158 237.447C315.99 241.087 318.727 245.528 320.288 250.565L322.984 250.491V151.577C321.287 154.01 319.726 156.738 318.501 159.748ZM275.318 295.37C272.672 296.372 270.391 297.75 268.663 299.448C266.984 301.096 265.957 302.927 265.6 304.916C265.504 305.45 265.455 305.996 265.455 306.549V306.921H277.673C277.341 302.589 276.525 298.93 275.318 295.37ZM265.455 326.678V342.496C265.52 342.425 265.585 342.354 265.647 342.282C269.488 338.024 273.165 332.77 275.439 326.678H265.455ZM255.674 247.502C251.836 260.524 247.756 269.819 244.166 277.351C248.513 279.139 252.413 281.56 255.674 284.548C258.932 281.563 262.836 279.139 267.18 277.351C263.59 269.822 259.513 260.524 255.674 247.502ZM245.748 304.916C245.389 302.93 244.365 301.096 242.686 299.448C240.955 297.75 238.674 296.369 236.03 295.37C234.823 298.927 234.007 302.589 233.675 306.921H245.894V306.549C245.894 305.996 245.848 305.45 245.748 304.916ZM235.937 326.678C238.215 332.717 241.885 337.947 245.702 342.195C245.767 342.267 245.829 342.338 245.894 342.409V326.678H235.937ZM235.937 326.678C238.215 332.717 241.885 337.947 245.702 342.195C245.767 342.267 245.829 342.338 245.894 342.409V326.678H235.937ZM245.748 304.916C245.389 302.93 244.365 301.096 242.686 299.448C240.955 297.75 238.674 296.369 236.03 295.37C234.823 298.927 234.007 302.589 233.675 306.921H245.894V306.549C245.894 305.996 245.848 305.45 245.748 304.916ZM255.674 247.502C251.836 260.524 247.756 269.819 244.166 277.351C248.513 279.139 252.413 281.56 255.674 284.548C258.932 281.563 262.836 279.139 267.18 277.351C263.59 269.822 259.513 260.524 255.674 247.502ZM265.455 326.678V342.496C265.52 342.425 265.585 342.354 265.647 342.282C269.488 338.024 273.165 332.77 275.439 326.678H265.455ZM275.318 295.37C272.672 296.372 270.391 297.75 268.663 299.448C266.984 301.096 265.957 302.927 265.6 304.916C265.504 305.45 265.455 305.996 265.455 306.549V306.921H277.673C277.341 302.589 276.525 298.93 275.318 295.37ZM318.501 159.748C317.225 163.69 312.915 190.616 307.24 233.608C308.838 234.623 310.517 235.886 312.158 237.447C315.99 241.087 318.727 245.528 320.288 250.565L322.984 250.491V151.577C321.287 154.01 319.726 156.738 318.501 159.748ZM320.502 270.325C319.056 275.225 316.425 279.629 312.692 283.338C308.028 287.971 301.81 291.233 295.152 292.686C296.328 296.928 297.156 301.565 297.457 306.921H322.984V270.254L320.502 270.325ZM320.502 270.325C319.056 275.225 316.425 279.629 312.692 283.338C308.028 287.971 301.81 291.233 295.152 292.686C296.328 296.928 297.156 301.565 297.457 306.921H322.984V270.254L320.502 270.325ZM318.501 159.748C317.225 163.69 312.915 190.616 307.24 233.608C308.838 234.623 310.517 235.886 312.158 237.447C315.99 241.087 318.727 245.528 320.288 250.565L322.984 250.491V151.577C321.287 154.01 319.726 156.738 318.501 159.748ZM275.318 295.37C272.672 296.372 270.391 297.75 268.663 299.448C266.984 301.096 265.957 302.927 265.6 304.916C265.504 305.45 265.455 305.996 265.455 306.549V306.921H277.673C277.341 302.589 276.525 298.93 275.318 295.37ZM265.455 326.678V342.496C265.52 342.425 265.585 342.354 265.647 342.282C269.488 338.024 273.165 332.77 275.439 326.678H265.455ZM255.674 247.502C251.836 260.524 247.756 269.819 244.166 277.351C248.513 279.139 252.413 281.56 255.674 284.548C258.932 281.563 262.836 279.139 267.18 277.351C263.59 269.822 259.513 260.524 255.674 247.502ZM245.748 304.916C245.389 302.93 244.365 301.096 242.686 299.448C240.955 297.75 238.674 296.369 236.03 295.37C234.823 298.927 234.007 302.589 233.675 306.921H245.894V306.549C245.894 305.996 245.848 305.45 245.748 304.916ZM235.937 326.678C238.215 332.717 241.885 337.947 245.702 342.195C245.767 342.267 245.829 342.338 245.894 342.409V326.678H235.937ZM235.937 326.678C238.215 332.717 241.885 337.947 245.702 342.195C245.767 342.267 245.829 342.338 245.894 342.409V326.678H235.937ZM245.748 304.916C245.389 302.93 244.365 301.096 242.686 299.448C240.955 297.75 238.674 296.369 236.03 295.37C234.823 298.927 234.007 302.589 233.675 306.921H245.894V306.549C245.894 305.996 245.848 305.45 245.748 304.916ZM255.674 247.502C251.836 260.524 247.756 269.819 244.166 277.351C248.513 279.139 252.413 281.56 255.674 284.548C258.932 281.563 262.836 279.139 267.18 277.351C263.59 269.822 259.513 260.524 255.674 247.502ZM265.455 326.678V342.496C265.52 342.425 265.585 342.354 265.647 342.282C269.488 338.024 273.165 332.77 275.439 326.678H265.455ZM275.318 295.37C272.672 296.372 270.391 297.75 268.663 299.448C266.984 301.096 265.957 302.927 265.6 304.916C265.504 305.45 265.455 305.996 265.455 306.549V306.921H277.673C277.341 302.589 276.525 298.93 275.318 295.37ZM320.502 270.325C319.056 275.225 316.425 279.629 312.692 283.338C308.028 287.971 301.81 291.233 295.152 292.686C296.328 296.928 297.156 301.565 297.457 306.921H322.984V270.254L320.502 270.325ZM318.501 159.748C317.225 163.69 312.915 190.616 307.24 233.608C308.838 234.623 310.517 235.886 312.158 237.447C315.99 241.087 318.727 245.528 320.288 250.565L322.984 250.491V151.577C321.287 154.01 319.726 156.738 318.501 159.748ZM320.502 270.325C319.056 275.225 316.425 279.629 312.692 283.338C308.028 287.971 301.81 291.233 295.152 292.686C296.328 296.928 297.156 301.565 297.457 306.921H322.984V270.254L320.502 270.325ZM318.501 159.748C317.225 163.69 312.915 190.616 307.24 233.608C308.838 234.623 310.517 235.886 312.158 237.447C315.99 241.087 318.727 245.528 320.288 250.565L322.984 250.491V151.577C321.287 154.01 319.726 156.738 318.501 159.748ZM275.318 295.37C272.672 296.372 270.391 297.75 268.663 299.448C266.984 301.096 265.957 302.927 265.6 304.916C265.504 305.45 265.455 305.996 265.455 306.549V306.921H277.673C277.341 302.589 276.525 298.93 275.318 295.37ZM265.455 326.678V342.496C265.52 342.425 265.585 342.354 265.647 342.282C269.488 338.024 273.165 332.77 275.439 326.678H265.455ZM255.674 247.502C251.836 260.524 247.756 269.819 244.166 277.351C248.513 279.139 252.413 281.56 255.674 284.548C258.932 281.563 262.836 279.139 267.18 277.351C263.59 269.822 259.513 260.524 255.674 247.502ZM245.748 304.916C245.389 302.93 244.365 301.096 242.686 299.448C240.955 297.75 238.674 296.369 236.03 295.37C234.823 298.927 234.007 302.589 233.675 306.921H245.894V306.549C245.894 305.996 245.848 305.45 245.748 304.916ZM235.937 326.678C238.215 332.717 241.885 337.947 245.702 342.195C245.767 342.267 245.829 342.338 245.894 342.409V326.678H235.937ZM235.937 326.678C238.215 332.717 241.885 337.947 245.702 342.195V326.678H235.937ZM242.686 299.448C240.955 297.75 238.674 296.369 236.03 295.37C234.823 298.927 234.007 302.589 233.675 306.921H245.702V306.549C245.702 306.003 245.717 305.459 245.748 304.916C245.392 302.93 244.365 301.096 242.686 299.448Z" fill="#FFF500"/>
<path d="M45.9907 322.52L42.7031 310.875L56.3926 306.819L55.9745 305.336L62.3254 303.455L63.1223 306.282L59.5317 307.347L62.5254 317.957L66.1159 316.893L66.9158 319.72L60.565 321.601L60.162 320.176C58.5591 319.894 56.7956 319.919 54.8746 320.248C52.9536 320.577 50.569 321.16 47.7269 322.004L45.9907 322.52ZM47.8359 318.46C52.8324 316.98 56.6078 316.365 59.159 316.614L57.3501 310.211L46.4209 313.448L47.8359 318.46Z" fill="#733D19"/>
<path d="M58.3238 302.515L41.5407 306.007L39.0137 293.261L41.8528 292.671L43.692 301.947L47.4128 301.175L45.7009 292.544L48.5279 291.957L50.2398 300.588L54.809 299.638L52.9062 290.036L55.7332 289.45L58.3238 302.515Z" fill="#733D19"/>
<path d="M55.333 286.792L38.3347 288.933L37.6591 283.291C37.4015 281.153 37.3197 279.75 37.4136 279.08C37.55 278.049 38.0045 277.146 38.7771 276.364C39.5498 275.585 40.6133 275.107 41.9647 274.94C43.007 274.809 43.9099 274.893 44.6674 275.191C45.4249 275.489 46.0431 275.911 46.5188 276.457C46.9975 277.003 47.3369 277.578 47.5429 278.18C47.8065 278.999 48.0338 280.203 48.2247 281.795L48.5004 284.089L54.9119 283.282L55.333 286.792ZM40.789 285.054L45.6128 284.446L45.3825 282.521C45.2159 281.137 45.0159 280.222 44.7826 279.775C44.5493 279.331 44.2251 278.999 43.816 278.782C43.407 278.565 42.9494 278.487 42.4465 278.549C41.8283 278.627 41.3405 278.878 40.983 279.3C40.6254 279.722 40.4315 280.225 40.3982 280.808C40.3709 281.237 40.4345 282.087 40.586 283.353L40.789 285.054Z" fill="#733D19"/>
<path d="M35.9845 260.977L43.2656 260.642C43.1929 260.056 42.9596 259.618 42.5657 259.332C42.1718 259.047 41.281 258.668 39.8962 258.2C38.0843 257.582 36.9178 256.915 36.3936 256.204C35.8785 255.503 35.5846 254.305 35.5118 252.617C35.5088 252.536 35.4967 252.365 35.4785 252.104L38.0328 251.987L38.0449 252.502C38.0752 253.219 38.1873 253.74 38.3782 254.066C38.5691 254.392 38.8479 254.652 39.2145 254.842C39.5811 255.031 40.3295 255.304 41.4597 255.661C42.0597 255.85 42.5657 256.058 42.9717 256.291C43.3807 256.524 43.7716 256.952 44.1504 257.573C44.3413 256.772 44.7533 256.102 45.3896 255.559C46.0259 255.016 46.9319 254.407 48.1106 253.737L52.698 251.13L52.8798 255.289L48.5499 257.598C48.4893 257.626 48.3711 257.697 48.1984 257.818C48.0833 257.886 47.8227 258.045 47.4137 258.287C46.6168 258.771 46.1108 259.162 45.8987 259.46C45.6866 259.758 45.5896 260.118 45.6078 260.54L53.101 260.195L53.2525 263.649L45.7593 263.994C45.7775 264.4 45.9017 264.745 46.132 265.03C46.3623 265.316 46.9046 265.657 47.7561 266.058C48.2348 266.284 48.5075 266.418 48.5802 266.464C48.7014 266.529 48.8226 266.591 48.9499 266.65L53.4646 268.55L53.6464 272.708L48.8499 270.536C47.6652 269.999 46.7198 269.487 46.0168 268.997C45.3139 268.506 44.8321 267.864 44.5685 267.069C44.2473 267.724 43.8958 268.184 43.5141 268.454C43.1323 268.724 42.6475 268.981 42.0566 269.233C40.984 269.683 40.272 270.015 39.9144 270.235C39.5569 270.455 39.2963 270.738 39.1327 271.085C38.9691 271.433 38.9024 271.988 38.9357 272.752C38.9388 272.848 38.9509 273 38.966 273.205L36.4118 273.323C36.4087 273.059 36.4057 272.888 36.3996 272.808C36.3239 271.095 36.5148 269.866 36.9753 269.115C37.4419 268.376 38.5418 267.619 40.278 266.843C41.6233 266.238 42.4778 265.778 42.8414 265.462C43.205 265.145 43.3989 264.692 43.4201 264.099L36.1391 264.435L35.9845 260.977Z" fill="#733D19"/>
<path d="M53.9533 233.715L53.723 237.56L49.7507 238.845L49.3356 245.844L53.1322 247.532L52.908 251.281L36.2188 243.395L36.4399 239.655L53.9533 233.715ZM46.8025 239.801L40.3153 241.818L46.5177 244.58L46.8025 239.801Z" fill="#733D19"/>
<path d="M37.2295 229.647L38.2203 222.711C38.4172 221.339 38.6203 220.321 38.8263 219.663C39.0354 219.005 39.3535 218.438 39.7838 217.957C40.214 217.475 40.7503 217.103 41.3897 216.836C42.029 216.569 42.7168 216.492 43.447 216.6C44.2409 216.718 44.9378 217.047 45.5377 217.584C46.1377 218.121 46.5498 218.791 46.774 219.589C47.2255 218.577 47.8557 217.842 48.6586 217.379C49.4646 216.92 50.3554 216.765 51.3341 216.911C52.1037 217.025 52.8279 217.323 53.5036 217.798C54.1793 218.273 54.6883 218.863 55.0338 219.564C55.3792 220.265 55.5337 221.088 55.5004 222.034C55.4792 222.627 55.3155 224.042 55.0125 226.277L54.1672 232.186L37.2295 229.647ZM40.5504 226.566L44.4682 227.152L44.7954 224.856C44.9893 223.49 45.0923 222.64 45.1014 222.301C45.1166 221.69 44.9833 221.19 44.6954 220.796C44.4106 220.402 43.9924 220.166 43.444 220.082C42.9198 220.005 42.4744 220.089 42.1048 220.334C41.7351 220.582 41.4745 220.992 41.32 221.566C41.2321 221.907 41.0685 222.903 40.8352 224.551L40.5504 226.566ZM47.2921 227.574L51.822 228.254L52.2855 225.011C52.4673 223.748 52.5461 222.941 52.5249 222.593C52.5067 222.059 52.3431 221.6 52.031 221.218C51.7189 220.837 51.2644 220.601 50.6615 220.511C50.1524 220.433 49.704 220.495 49.3131 220.697C48.9222 220.896 48.6132 221.221 48.3829 221.674C48.1526 222.128 47.9254 223.152 47.6951 224.747L47.2921 227.574Z" fill="#733D19"/>
<path d="M56.7629 215.049L40.0889 211.045L40.8767 207.597L47.4396 209.174L48.9849 202.418L42.422 200.841L43.2098 197.393L59.8838 201.397L59.093 204.844L51.8028 203.094L50.2575 209.85L57.5477 211.601L56.7629 215.049Z" fill="#733D19"/>
<path d="M65.5454 183.174L64.3789 186.836L60.2157 187.056L58.0916 193.723L61.3519 196.336L60.2126 199.908L46.002 187.972L47.1352 184.412L65.5454 183.174ZM57.1281 187.218L50.3561 187.497L55.6798 191.767L57.1281 187.218Z" fill="#733D19"/>
<path d="M52.2998 169.92L53.9027 166.317L63.6502 166.366L56.9721 159.414L58.4689 156.05L67.9164 166.965C68.9375 168.151 69.6465 169.206 70.0465 170.128C70.4465 171.049 70.4313 171.993 70.001 172.958C69.5768 173.908 69.186 174.625 68.8284 175.106L66.4893 174.016C66.7196 173.572 66.9195 173.166 67.0832 172.793C67.4165 172.046 67.5195 171.45 67.3983 171.003C67.2771 170.556 66.8408 169.979 66.0954 169.271L52.2998 169.92Z" fill="#733D19"/>
<path d="M74.5199 149.078L77.0742 146.602C78.4589 147.989 79.2588 149.445 79.4739 150.965C79.6891 152.486 79.3497 154.072 78.4589 155.717C77.356 157.753 75.7713 159.044 73.7018 159.584C71.6323 160.124 69.4204 159.726 67.0631 158.386C64.5694 156.97 62.9908 155.211 62.3242 153.11C61.6576 151.009 61.906 148.883 63.0695 146.735C64.0846 144.858 65.4511 143.641 67.1691 143.086C68.1872 142.75 69.3901 142.75 70.7779 143.082L69.8325 146.555C68.9568 146.295 68.1387 146.326 67.3782 146.645C66.6177 146.965 66.0147 147.539 65.5693 148.361C64.9542 149.497 64.8542 150.649 65.2663 151.809C65.6814 152.97 66.7783 154.056 68.5629 155.071C70.4567 156.145 71.9929 156.564 73.1746 156.322C74.3563 156.08 75.2471 155.403 75.8531 154.286C76.2985 153.464 76.4258 152.61 76.2349 151.726C76.05 150.841 75.4774 149.96 74.5199 149.078Z" fill="#733D19"/>
<path d="M84.8973 144.127L73.0046 136.126L70.2139 140.477L67.793 138.848L75.2649 127.197L77.6859 128.826L74.9044 133.168L86.7971 141.169L84.8973 144.127Z" fill="#733D19"/>
<path d="M99.1942 123.878L96.9126 126.942L92.913 125.744L88.7619 131.321L90.998 134.887L88.774 137.875L79.1992 121.805L81.4172 118.826L99.1942 123.878ZM89.9466 124.856L83.4624 122.833L87.1136 128.664L89.9466 124.856Z" fill="#733D19"/>
<path d="M100.211 122.736L87.5127 110.968L89.8337 108.342L94.8301 112.975L99.3751 107.83L94.3787 103.196L96.6996 100.571L109.398 112.339L107.077 114.965L101.526 109.819L96.9814 114.965L102.532 120.11L100.211 122.736Z" fill="#733D19"/>
<path d="M105.375 104.1C104.187 102.79 103.384 101.508 102.96 100.257C102.651 99.3326 102.509 98.3736 102.533 97.3836C102.554 96.3936 102.745 95.4936 103.106 94.6836C103.581 93.6005 104.33 92.5732 105.351 91.6018C107.199 89.8453 109.214 89.0259 111.387 89.1439C113.562 89.2649 115.598 90.3698 117.495 92.4646C119.377 94.5408 120.295 96.6884 120.255 98.9074C120.216 101.126 119.274 103.113 117.431 104.866C115.565 106.641 113.553 107.467 111.393 107.349C109.235 107.231 107.229 106.148 105.375 104.1ZM107.905 101.53C109.223 102.985 110.553 103.777 111.89 103.904C113.226 104.031 114.401 103.615 115.41 102.653C116.419 101.694 116.913 100.531 116.886 99.1712C116.859 97.8088 116.168 96.3843 114.82 94.8915C113.483 93.4174 112.174 92.6198 110.887 92.4925C109.599 92.3684 108.432 92.7998 107.387 93.7929C106.342 94.786 105.833 95.9529 105.857 97.2936C105.884 98.6405 106.566 100.053 107.905 101.53Z" fill="#733D19"/>
<path d="M114.631 83.5137L120.036 79.2123C121.106 78.362 121.939 77.7723 122.533 77.4433C123.127 77.1175 123.742 76.9313 124.378 76.8909C125.015 76.8506 125.651 76.9592 126.293 77.223C126.936 77.4837 127.484 77.9151 127.939 78.514C128.429 79.1627 128.711 79.8951 128.781 80.7082C128.851 81.5213 128.696 82.2972 128.317 83.0327C129.326 82.623 130.278 82.5361 131.172 82.7751C132.062 83.0141 132.814 83.5355 133.42 84.3331C133.899 84.9631 134.22 85.6893 134.386 86.5117C134.553 87.3341 134.523 88.1224 134.299 88.8703C134.074 89.6214 133.629 90.3259 132.965 90.9838C132.547 91.3966 131.475 92.3028 129.744 93.6993L125.142 97.3645L114.631 83.5137ZM119.112 83.6441L121.542 86.8469L123.33 85.4224C124.394 84.5751 125.042 84.0351 125.278 83.7962C125.702 83.3679 125.945 82.9086 126.005 82.4213C126.066 81.9341 125.927 81.4685 125.587 81.0216C125.263 80.5934 124.884 80.3358 124.448 80.252C124.015 80.1682 123.548 80.2799 123.051 80.5841C122.757 80.7672 121.966 81.3723 120.682 82.3934L119.112 83.6441ZM123.291 89.1527L126.099 92.8552L128.626 90.8441C129.611 90.0621 130.214 89.5345 130.435 89.2676C130.784 88.8703 130.975 88.4203 131.008 87.9269C131.041 87.4303 130.872 86.9369 130.499 86.4465C130.184 86.0307 129.817 85.7575 129.402 85.6241C128.987 85.4907 128.542 85.5062 128.069 85.6706C127.596 85.8351 126.739 86.4124 125.496 87.3993L123.291 89.1527Z" fill="#733D19"/>
<path d="M150.526 78.8224L147.384 80.9421L143.997 78.4562L138.279 82.3108L139.237 86.4353L136.173 88.5022L132.328 70.0955L135.382 68.0348L150.526 78.8224ZM141.485 76.6128L136.019 72.5038L137.582 79.2445L141.485 76.6128Z" fill="#733D19"/>
<path d="M169.196 68.9036L162.124 52.9269L165.272 51.4652L172.344 67.4419L169.196 68.9036Z" fill="#733D19"/>
<path d="M175.115 66.0858L168.974 49.7119L172.201 48.4426L174.619 54.8885L180.942 52.3995L178.524 45.9536L181.751 44.6843L187.893 61.0582L184.666 62.3275L181.981 55.1678L175.658 57.6568L178.342 64.8165L175.115 66.0858Z" fill="#733D19"/>
<path d="M199.734 50.686L203.249 50.776C203.273 52.7623 202.84 54.3699 201.943 55.605C201.046 56.8371 199.716 57.7154 197.95 58.2399C195.765 58.8885 193.753 58.6558 191.917 57.5416C190.078 56.4306 188.784 54.5468 188.036 51.8964C187.245 49.0909 187.336 46.7043 188.311 44.7336C189.287 42.7629 190.926 41.4377 193.232 40.7549C195.244 40.1591 197.05 40.2832 198.653 41.1305C199.604 41.6301 200.459 42.496 201.213 43.7343L198.153 45.5126C197.71 44.6964 197.11 44.1284 196.35 43.8057C195.589 43.4829 194.768 43.4519 193.887 43.7126C192.668 44.0726 191.805 44.8143 191.299 45.9377C190.793 47.0581 190.823 48.6253 191.39 50.6302C191.993 52.7592 192.793 54.1681 193.799 54.8478C194.802 55.5306 195.901 55.6951 197.098 55.3382C197.98 55.0775 198.659 54.5654 199.131 53.8019C199.604 53.0385 199.807 52.0019 199.734 50.686Z" fill="#733D19"/>
<path d="M210.496 54.6764L207.584 40.4128L202.609 41.4773L202.015 38.5725L215.335 35.7204L215.928 38.6252L210.965 39.6866L213.877 53.9502L210.496 54.6764Z" fill="#733D19"/>
<path d="M218.593 35.16L221.802 34.7349L223.259 46.317L228.683 33.8255L232.101 33.3724L234.291 50.7705L231.082 51.1957L229.652 39.8401L224.213 52.105L220.783 52.5581L218.593 35.16Z" fill="#733D19"/>
<path d="M241.347 50.323L240.617 35.7677L235.542 36.0346L235.394 33.0708L248.986 32.357L249.135 35.3208L244.071 35.5877L244.802 50.143L241.347 50.323Z" fill="#733D19"/>
<path d="M250.406 32.3106L254.273 32.3882L258.093 41.5713L261.678 32.5371L265.287 32.6085L259.251 45.82C258.593 47.2507 257.93 48.3369 257.26 49.0755C256.59 49.8141 255.739 50.1773 254.703 50.1555C253.682 50.1338 252.885 50.05 252.312 49.9041L252.364 47.2724C252.854 47.3128 253.297 47.3376 253.694 47.3469C254.497 47.3624 255.072 47.2259 255.424 46.9341C255.775 46.6424 256.121 46.0062 256.46 45.0224L250.406 32.3106Z" fill="#733D19"/>
<path d="M270.231 50.659L271.528 36.1471L266.468 35.6723L266.731 32.7178L280.285 33.9902L280.021 36.9447L274.973 36.4699L273.676 50.9817L270.231 50.659Z" fill="#733D19"/>
<path d="M288.098 44.0577C288.453 42.3074 289.007 40.8953 289.762 39.8184C290.319 39.0239 291.001 38.3504 291.801 37.798C292.601 37.2425 293.428 36.8825 294.282 36.7149C295.419 36.4853 296.67 36.5163 298.033 36.808C300.503 37.3356 302.321 38.5429 303.484 40.4267C304.648 42.3136 304.945 44.6536 304.375 47.4498C303.812 50.2212 302.633 52.2354 300.845 53.4861C299.055 54.7368 296.928 55.0999 294.467 54.5754C291.973 54.0447 290.149 52.8405 288.995 50.9691C287.841 49.0915 287.541 46.7919 288.098 44.0577ZM291.61 44.6846C291.213 46.6305 291.352 48.1977 292.025 49.3864C292.698 50.5781 293.71 51.3167 295.058 51.6054C296.406 51.894 297.615 51.6333 298.685 50.8202C299.752 50.0102 300.491 48.6074 300.894 46.6181C301.294 44.6505 301.173 43.0925 300.527 41.9443C299.882 40.796 298.861 40.0729 297.467 39.7749C296.073 39.477 294.846 39.7284 293.795 40.526C292.74 41.3236 292.01 42.7077 291.61 44.6846Z" fill="#733D19"/>
<path d="M302.36 55.9535L310.496 48.8652L307.72 39.2848L311.599 40.4517L313.341 46.8511L318.122 42.4162L321.967 43.5738L314.511 50.2059L317.641 60.5529L313.641 59.3487L311.672 52.4311L306.348 57.1484L302.36 55.9535Z" fill="#733D19"/>
<path d="M320.806 52.5039C321.433 50.8373 322.202 49.5338 323.117 48.5935C323.793 47.9045 324.572 47.3521 325.45 46.9362C326.329 46.5235 327.202 46.3031 328.071 46.2783C329.229 46.2411 330.459 46.4769 331.759 46.9921C334.113 47.9231 335.716 49.4159 336.565 51.4704C337.413 53.5249 337.337 55.8836 336.334 58.5494C335.34 61.1905 333.859 62.9812 331.895 63.9184C329.932 64.8557 327.775 64.8619 325.429 63.934C323.054 62.9936 321.445 61.507 320.599 59.4681C319.757 57.4291 319.824 55.1077 320.806 52.5039ZM324.172 53.7049C323.475 55.5577 323.363 57.128 323.839 58.4129C324.314 59.7008 325.196 60.5977 326.481 61.1036C327.765 61.6126 329.002 61.5536 330.183 60.9298C331.365 60.306 332.313 59.046 333.029 57.1498C333.735 55.2753 333.862 53.7173 333.404 52.4759C332.95 51.2346 332.056 50.3532 330.726 49.8287C329.396 49.3042 328.147 49.3476 326.984 49.959C325.82 50.5735 324.881 51.8211 324.172 53.7049Z" fill="#733D19"/>
<path d="M335.382 67.7577L342.878 51.9858L347.868 54.4748C349.759 55.4183 350.953 56.1104 351.453 56.5541C352.223 57.2307 352.716 58.1152 352.935 59.2045C353.153 60.2938 352.965 61.4669 352.368 62.7207C351.907 63.689 351.35 64.4183 350.692 64.9056C350.035 65.3928 349.353 65.6939 348.647 65.8087C347.938 65.9204 347.284 65.9018 346.681 65.7528C345.866 65.5325 344.757 65.0732 343.348 64.3718L341.321 63.3601L338.494 69.3094L335.382 67.7577ZM344.72 56.2066L342.593 60.6818L344.296 61.529C345.52 62.1404 346.381 62.4663 346.872 62.5066C347.362 62.5469 347.811 62.4507 348.211 62.218C348.614 61.9852 348.923 61.6345 349.147 61.1659C349.42 60.5918 349.48 60.0362 349.329 59.4993C349.177 58.9624 348.871 58.5217 348.411 58.1773C348.074 57.9197 347.344 57.5131 346.226 56.9545L344.72 56.2066Z" fill="#733D19"/>
<path d="M352.834 66.8652C353.725 65.329 354.697 64.1776 355.752 63.4079C356.534 62.8431 357.388 62.4334 358.321 62.1758C359.254 61.9182 360.151 61.8531 361.012 61.9772C362.16 62.1386 363.333 62.5824 364.533 63.3117C366.702 64.6307 368.038 66.3779 368.541 68.5472C369.044 70.7166 368.584 73.0318 367.16 75.4866C365.748 77.9197 363.996 79.4311 361.906 80.0208C359.815 80.6104 357.691 80.2442 355.528 78.9283C353.337 77.597 351.995 75.8528 351.495 73.699C350.995 71.5452 351.443 69.2673 352.834 66.8652ZM355.958 68.6279C354.967 70.3348 354.6 71.8649 354.861 73.2149C355.119 74.5649 355.843 75.6014 357.027 76.3214C358.212 77.0414 359.439 77.1966 360.706 76.787C361.972 76.3742 363.115 75.2942 364.13 73.5469C365.133 71.8183 365.511 70.3038 365.263 69.0035C365.018 67.7031 364.281 66.679 363.054 65.9341C361.83 65.1893 360.591 65.0186 359.342 65.4221C358.094 65.8224 356.964 66.8931 355.958 68.6279Z" fill="#733D19"/>
<path d="M364.736 84.3869L374.738 70.1482L377.544 72.2182L373.608 77.8231L379.108 81.8762L383.044 76.2713L385.849 78.3414L375.847 92.5801L373.042 90.5101L377.414 84.2845L371.914 80.2314L367.542 86.4569L364.736 84.3869Z" fill="#733D19"/>
<path d="M389.563 81.3235L392.023 83.4773L384.612 92.3501L397.295 88.0952L399.913 90.3887L388.781 103.718L386.324 101.564L393.59 92.8622L381.058 96.9525L378.431 94.6498L389.563 81.3235Z" fill="#733D19"/>
<path d="M408.35 98.7719L414.316 105.069L412.225 107.089L408.632 103.371L398.263 113.386L395.891 110.81L408.35 98.7719Z" fill="#733D19"/>
<path d="M404.819 120.611L418.091 109.522L421.599 113.926C422.93 115.595 423.73 116.737 423.999 117.355C424.42 118.302 424.505 119.313 424.257 120.396C424.008 121.48 423.357 122.46 422.299 123.345C421.484 124.024 420.678 124.446 419.881 124.608C419.085 124.769 418.342 124.748 417.654 124.546C416.967 124.344 416.379 124.046 415.891 123.649C415.242 123.1 414.424 122.203 413.434 120.961L412.01 119.171L407.004 123.354L404.819 120.611ZM418.03 114.143L414.264 117.29L415.461 118.792C416.321 119.875 416.967 120.539 417.397 120.788C417.827 121.036 418.272 121.141 418.733 121.101C419.194 121.061 419.621 120.878 420.012 120.549C420.493 120.145 420.778 119.667 420.86 119.115C420.942 118.562 420.845 118.032 420.569 117.52C420.369 117.141 419.875 116.458 419.088 115.468L418.03 114.143Z" fill="#733D19"/>
<path d="M427.451 121.349L429.669 124.595L424.676 133.167L433.914 130.809L435.984 133.838L422.007 136.628C420.492 136.926 419.243 137.016 418.265 136.901C417.286 136.783 416.501 136.289 415.907 135.42C415.322 134.564 414.919 133.856 414.698 133.295L416.804 131.786C417.059 132.218 417.301 132.599 417.528 132.931C417.989 133.605 418.437 134.002 418.874 134.12C419.313 134.238 420.019 134.148 420.992 133.85L427.451 121.349Z" fill="#733D19"/>
<path d="M422.715 145.146L437.474 136.249L439.228 139.303L433.42 142.803L436.856 148.784L442.664 145.283L444.419 148.334L429.66 157.231L427.905 154.181L434.359 150.289L430.923 144.308L424.469 148.197L422.715 145.146Z" fill="#733D19"/>
<path d="M432.848 163.742L445.637 157.355L443.41 152.678L446.013 151.378L451.976 163.906L449.373 165.207L447.152 160.539L434.363 166.926L432.848 163.742Z" fill="#733D19"/>
<path d="M437.257 173.431L453.022 166.579L454.373 169.837L438.608 176.69L437.257 173.431Z" fill="#733D19"/>
<path d="M455.99 173.671L458.29 180.276C458.744 181.582 459.032 182.578 459.147 183.258C459.265 183.941 459.241 184.596 459.081 185.226C458.92 185.856 458.617 186.442 458.175 186.985C457.732 187.528 457.16 187.926 456.463 188.18C455.708 188.456 454.942 188.5 454.166 188.314C453.39 188.127 452.721 187.733 452.157 187.134C452.221 188.245 452.003 189.198 451.503 189.989C451.003 190.781 450.285 191.349 449.354 191.69C448.621 191.957 447.845 192.044 447.033 191.948C446.218 191.852 445.497 191.575 444.873 191.122C444.249 190.669 443.734 190.017 443.331 189.164C443.079 188.63 442.576 187.302 441.819 185.179L439.861 179.556L455.99 173.671ZM448.051 180.331L443.737 181.908L444.812 184.996C445.231 186.197 445.53 186.948 445.709 187.246C445.97 187.708 446.324 188.034 446.776 188.224C447.224 188.41 447.736 188.4 448.309 188.193C448.794 188.016 449.163 187.746 449.415 187.383C449.669 187.019 449.794 186.582 449.791 186.07C449.788 185.558 449.521 184.546 448.991 183.028L448.051 180.331ZM454.466 177.988L450.736 179.351L451.497 181.536C451.948 182.836 452.248 183.637 452.393 183.938C452.657 184.484 453.008 184.862 453.439 185.074C453.872 185.285 454.348 185.294 454.869 185.105C455.369 184.921 455.723 184.633 455.939 184.239C456.151 183.845 456.196 183.354 456.069 182.774C455.99 182.429 455.678 181.474 455.133 179.903L454.466 177.988Z" fill="#733D19"/>
<path d="M463.433 196.641L464.318 200.495L456.576 206.559L466.008 207.881L466.832 211.481L452.843 208.76C451.328 208.462 450.137 208.071 449.271 207.59C448.404 207.109 447.853 206.354 447.616 205.321C447.383 204.303 447.265 203.493 447.262 202.888L449.764 202.286C449.846 202.782 449.931 203.229 450.022 203.623C450.204 204.424 450.48 204.961 450.843 205.24C451.207 205.516 451.895 205.703 452.907 205.796L463.433 196.641Z" fill="#733D19"/>
<path d="M467.291 214.251L467.837 217.749L460.637 218.925C460.834 219.692 461.113 220.188 461.474 220.412C461.831 220.635 462.773 220.918 464.304 221.259C466.246 221.684 467.497 222.227 468.058 222.888C468.615 223.54 469.021 224.673 469.273 226.29C469.285 226.367 469.315 226.538 469.364 226.796L466.837 227.208L466.77 226.709C466.658 225.992 466.491 225.483 466.267 225.179C466.043 224.878 465.737 224.651 465.352 224.505C464.967 224.359 464.191 224.173 463.031 223.953C462.413 223.835 461.889 223.686 461.458 223.503C461.028 223.32 460.589 222.941 460.146 222.367C460.052 223.183 459.719 223.897 459.143 224.511C458.568 225.126 457.732 225.833 456.635 226.637L452.365 229.759L451.726 225.647L455.777 222.867C455.835 222.826 455.941 222.739 456.104 222.606C456.159 222.556 456.401 222.367 456.832 222.038C457.592 221.454 458.053 221.001 458.216 220.679C458.38 220.356 458.419 219.9 458.334 219.307L450.929 220.517L450.384 217.02L467.291 214.251Z" fill="#733D19"/>
<path d="M452.533 231.438L469.598 229.97L470.062 235.634C470.237 237.782 470.268 239.188 470.15 239.852C469.977 240.876 469.486 241.76 468.686 242.511C467.883 243.259 466.804 243.694 465.447 243.812C464.399 243.902 463.502 243.784 462.756 243.455C462.011 243.126 461.408 242.679 460.954 242.114C460.496 241.549 460.178 240.963 459.993 240.355C459.76 239.526 459.578 238.312 459.448 236.714L459.26 234.415L452.821 234.97L452.533 231.438ZM467.001 233.747L462.16 234.163L462.317 236.094C462.432 237.484 462.596 238.406 462.814 238.862C463.032 239.315 463.341 239.659 463.744 239.892C464.147 240.125 464.599 240.221 465.105 240.178C465.726 240.125 466.223 239.892 466.595 239.486C466.968 239.076 467.18 238.582 467.235 238.002C467.277 237.574 467.247 236.724 467.144 235.451L467.001 233.747Z" fill="#733D19"/>
<path d="M453.859 261.095L453.81 257.244L457.683 255.661L457.595 248.651L453.686 247.254L453.641 243.499L470.848 250.109L470.893 253.855L453.859 261.095ZM460.555 254.488L466.879 251.99L460.494 249.703L460.555 254.488Z" fill="#733D19"/>
<path d="M453.651 262.636L470.761 263.402L470.609 266.94L453.499 266.174L453.651 262.636ZM471.618 266.267L474.43 266.394L474.306 269.287L471.494 269.159L471.618 266.267ZM471.84 261.128L474.651 261.252L474.527 264.132L471.715 264.005L471.84 261.128Z" fill="#733D19"/>
<path d="M453.431 269.269L470.468 271.051L470.117 274.573L463.412 273.872L462.724 280.777L469.429 281.478L469.078 285.001L452.04 283.219L452.392 279.697L459.842 280.476L460.53 273.571L453.082 272.792L453.431 269.269Z" fill="#733D19"/>
<path d="M468.396 289.793L467.796 293.049L456.591 290.886L466.508 300.035L465.869 303.505L449.04 300.255L449.64 297L460.627 299.122L450.925 290.029L451.564 286.55L468.396 289.793Z" fill="#733D19"/>
<path d="M156.262 56.6667L157.752 55.7449C158.183 55.478 158.748 55.6549 158.952 56.1173L160.749 60.2015C160.916 60.5832 160.777 61.027 160.423 61.2443L159.694 61.6912C159.322 61.9208 158.831 61.8215 158.58 61.4646L156.023 57.8522C155.744 57.4611 155.853 56.918 156.262 56.6667Z" fill="#733D19"/>
<path d="M160.883 54.1804L162.419 53.3394C162.862 53.0973 163.418 53.3021 163.598 53.7739L165.177 57.948C165.323 58.336 165.162 58.7735 164.796 58.9722L164.045 59.3818C163.66 59.5929 163.176 59.4656 162.943 59.0963L160.582 55.3535C160.321 54.9501 160.461 54.4132 160.883 54.1804Z" fill="#733D19"/>
<path d="M475.184 309.286L474.936 311.018C474.865 311.518 474.365 311.841 473.881 311.698L469.596 310.453C469.196 310.339 468.945 309.944 469.004 309.535L469.128 308.687C469.19 308.253 469.581 307.943 470.018 307.977L474.427 308.334C474.905 308.377 475.253 308.812 475.184 309.286Z" fill="#733D19"/>
<path d="M474.123 314.426L473.784 316.142C473.685 316.638 473.173 316.933 472.695 316.766L468.482 315.298C468.091 315.161 467.858 314.755 467.939 314.348L468.106 313.51C468.193 313.079 468.6 312.79 469.034 312.849L473.418 313.439C473.893 313.501 474.216 313.954 474.123 314.426Z" fill="#733D19"/>
</g>
<defs>
<clipPath id="clip0_865_122">
<rect width="512" height="512" fill="white"/>
</clipPath>
</defs>
</svg>
